<?xml version="1.0" encoding="utf-8" standalone="no"?>
<!DOCTYPE svg PUBLIC "-//W3C//DTD SVG 1.1//EN"
  "http://www.w3.org/Graphics/SVG/1.1/DTD/svg11.dtd">
<svg xmlns:xlink="http://www.w3.org/1999/xlink" width="864pt" height="432pt" viewBox="0 0 864 432" xmlns="http://www.w3.org/2000/svg" version="1.1">
 <metadata>
  <rdf:RDF xmlns:dc="http://purl.org/dc/elements/1.1/" xmlns:cc="http://creativecommons.org/ns#" xmlns:rdf="http://www.w3.org/1999/02/22-rdf-syntax-ns#">
   <cc:Work>
    <dc:type rdf:resource="http://purl.org/dc/dcmitype/StillImage"/>
    <dc:date>2025-07-25T22:38:31.319707</dc:date>
    <dc:format>image/svg+xml</dc:format>
    <dc:creator>
     <cc:Agent>
      <dc:title>Matplotlib v3.10.3, https://matplotlib.org/</dc:title>
     </cc:Agent>
    </dc:creator>
   </cc:Work>
  </rdf:RDF>
 </metadata>
 <defs>
  <style type="text/css">*{stroke-linejoin: round; stroke-linecap: butt}</style>
 </defs>
 <g id="figure_1">
  <g id="patch_1">
   <path d="M 0 432 
L 864 432 
L 864 0 
L 0 0 
z
" style="fill: #ffffff"/>
  </g>
  <g id="axes_1">
   <g id="patch_2">
    <path d="M 108 336.96 
L 777.6 336.96 
L 777.6 51.84 
L 108 51.84 
z
" style="fill: #ffffff"/>
   </g>
   <g id="matplotlib.axis_1">
    <g id="xtick_1">
     <g id="text_1">
      <!-- flacara -->
      <g style="fill: #262626" transform="translate(123.176313 372.118168) rotate(-30) scale(0.121 -0.121)">
       <defs>
        <path id="ArialMT-66" d="M 556 0 
L 556 2881 
L 59 2881 
L 59 3319 
L 556 3319 
L 556 3672 
Q 556 4006 616 4169 
Q 697 4388 901 4523 
Q 1106 4659 1475 4659 
Q 1713 4659 2000 4603 
L 1916 4113 
Q 1741 4144 1584 4144 
Q 1328 4144 1222 4034 
Q 1116 3925 1116 3625 
L 1116 3319 
L 1763 3319 
L 1763 2881 
L 1116 2881 
L 1116 0 
L 556 0 
z
" transform="scale(0.015625)"/>
        <path id="ArialMT-6c" d="M 409 0 
L 409 4581 
L 972 4581 
L 972 0 
L 409 0 
z
" transform="scale(0.015625)"/>
        <path id="ArialMT-61" d="M 2588 409 
Q 2275 144 1986 34 
Q 1697 -75 1366 -75 
Q 819 -75 525 192 
Q 231 459 231 875 
Q 231 1119 342 1320 
Q 453 1522 633 1644 
Q 813 1766 1038 1828 
Q 1203 1872 1538 1913 
Q 2219 1994 2541 2106 
Q 2544 2222 2544 2253 
Q 2544 2597 2384 2738 
Q 2169 2928 1744 2928 
Q 1347 2928 1158 2789 
Q 969 2650 878 2297 
L 328 2372 
Q 403 2725 575 2942 
Q 747 3159 1072 3276 
Q 1397 3394 1825 3394 
Q 2250 3394 2515 3294 
Q 2781 3194 2906 3042 
Q 3031 2891 3081 2659 
Q 3109 2516 3109 2141 
L 3109 1391 
Q 3109 606 3145 398 
Q 3181 191 3288 0 
L 2700 0 
Q 2613 175 2588 409 
z
M 2541 1666 
Q 2234 1541 1622 1453 
Q 1275 1403 1131 1340 
Q 988 1278 909 1158 
Q 831 1038 831 891 
Q 831 666 1001 516 
Q 1172 366 1500 366 
Q 1825 366 2078 508 
Q 2331 650 2450 897 
Q 2541 1088 2541 1459 
L 2541 1666 
z
" transform="scale(0.015625)"/>
        <path id="ArialMT-63" d="M 2588 1216 
L 3141 1144 
Q 3050 572 2676 248 
Q 2303 -75 1759 -75 
Q 1078 -75 664 370 
Q 250 816 250 1647 
Q 250 2184 428 2587 
Q 606 2991 970 3192 
Q 1334 3394 1763 3394 
Q 2303 3394 2647 3120 
Q 2991 2847 3088 2344 
L 2541 2259 
Q 2463 2594 2264 2762 
Q 2066 2931 1784 2931 
Q 1359 2931 1093 2626 
Q 828 2322 828 1663 
Q 828 994 1084 691 
Q 1341 388 1753 388 
Q 2084 388 2306 591 
Q 2528 794 2588 1216 
z
" transform="scale(0.015625)"/>
        <path id="ArialMT-72" d="M 416 0 
L 416 3319 
L 922 3319 
L 922 2816 
Q 1116 3169 1280 3281 
Q 1444 3394 1641 3394 
Q 1925 3394 2219 3213 
L 2025 2691 
Q 1819 2813 1613 2813 
Q 1428 2813 1281 2702 
Q 1134 2591 1072 2394 
Q 978 2094 978 1738 
L 978 0 
L 416 0 
z
" transform="scale(0.015625)"/>
       </defs>
       <use xlink:href="#ArialMT-66"/>
       <use xlink:href="#ArialMT-6c" transform="translate(27.783203 0)"/>
       <use xlink:href="#ArialMT-61" transform="translate(50 0)"/>
       <use xlink:href="#ArialMT-63" transform="translate(105.615234 0)"/>
       <use xlink:href="#ArialMT-61" transform="translate(155.615234 0)"/>
       <use xlink:href="#ArialMT-72" transform="translate(211.230469 0)"/>
       <use xlink:href="#ArialMT-61" transform="translate(244.53125 0)"/>
      </g>
     </g>
    </g>
    <g id="xtick_2">
     <g id="text_2">
      <!-- lichid -->
      <g style="fill: #262626" transform="translate(226.404467 367.747043) rotate(-30) scale(0.121 -0.121)">
       <defs>
        <path id="ArialMT-69" d="M 425 3934 
L 425 4581 
L 988 4581 
L 988 3934 
L 425 3934 
z
M 425 0 
L 425 3319 
L 988 3319 
L 988 0 
L 425 0 
z
" transform="scale(0.015625)"/>
        <path id="ArialMT-68" d="M 422 0 
L 422 4581 
L 984 4581 
L 984 2938 
Q 1378 3394 1978 3394 
Q 2347 3394 2619 3248 
Q 2891 3103 3008 2847 
Q 3125 2591 3125 2103 
L 3125 0 
L 2563 0 
L 2563 2103 
Q 2563 2525 2380 2717 
Q 2197 2909 1863 2909 
Q 1613 2909 1392 2779 
Q 1172 2650 1078 2428 
Q 984 2206 984 1816 
L 984 0 
L 422 0 
z
" transform="scale(0.015625)"/>
        <path id="ArialMT-64" d="M 2575 0 
L 2575 419 
Q 2259 -75 1647 -75 
Q 1250 -75 917 144 
Q 584 363 401 755 
Q 219 1147 219 1656 
Q 219 2153 384 2558 
Q 550 2963 881 3178 
Q 1213 3394 1622 3394 
Q 1922 3394 2156 3267 
Q 2391 3141 2538 2938 
L 2538 4581 
L 3097 4581 
L 3097 0 
L 2575 0 
z
M 797 1656 
Q 797 1019 1065 703 
Q 1334 388 1700 388 
Q 2069 388 2326 689 
Q 2584 991 2584 1609 
Q 2584 2291 2321 2609 
Q 2059 2928 1675 2928 
Q 1300 2928 1048 2622 
Q 797 2316 797 1656 
z
" transform="scale(0.015625)"/>
       </defs>
       <use xlink:href="#ArialMT-6c"/>
       <use xlink:href="#ArialMT-69" transform="translate(22.216797 0)"/>
       <use xlink:href="#ArialMT-63" transform="translate(44.433594 0)"/>
       <use xlink:href="#ArialMT-68" transform="translate(94.433594 0)"/>
       <use xlink:href="#ArialMT-69" transform="translate(150.048828 0)"/>
       <use xlink:href="#ArialMT-64" transform="translate(172.265625 0)"/>
      </g>
     </g>
    </g>
    <g id="xtick_3">
     <g id="text_3">
      <!-- contact -->
      <g style="fill: #262626" transform="translate(312.157405 373.465238) rotate(-30) scale(0.121 -0.121)">
       <defs>
        <path id="ArialMT-6f" d="M 213 1659 
Q 213 2581 725 3025 
Q 1153 3394 1769 3394 
Q 2453 3394 2887 2945 
Q 3322 2497 3322 1706 
Q 3322 1066 3130 698 
Q 2938 331 2570 128 
Q 2203 -75 1769 -75 
Q 1072 -75 642 372 
Q 213 819 213 1659 
z
M 791 1659 
Q 791 1022 1069 705 
Q 1347 388 1769 388 
Q 2188 388 2466 706 
Q 2744 1025 2744 1678 
Q 2744 2294 2464 2611 
Q 2184 2928 1769 2928 
Q 1347 2928 1069 2612 
Q 791 2297 791 1659 
z
" transform="scale(0.015625)"/>
        <path id="ArialMT-6e" d="M 422 0 
L 422 3319 
L 928 3319 
L 928 2847 
Q 1294 3394 1984 3394 
Q 2284 3394 2536 3286 
Q 2788 3178 2913 3003 
Q 3038 2828 3088 2588 
Q 3119 2431 3119 2041 
L 3119 0 
L 2556 0 
L 2556 2019 
Q 2556 2363 2490 2533 
Q 2425 2703 2258 2804 
Q 2091 2906 1866 2906 
Q 1506 2906 1245 2678 
Q 984 2450 984 1813 
L 984 0 
L 422 0 
z
" transform="scale(0.015625)"/>
        <path id="ArialMT-74" d="M 1650 503 
L 1731 6 
Q 1494 -44 1306 -44 
Q 1000 -44 831 53 
Q 663 150 594 308 
Q 525 466 525 972 
L 525 2881 
L 113 2881 
L 113 3319 
L 525 3319 
L 525 4141 
L 1084 4478 
L 1084 3319 
L 1650 3319 
L 1650 2881 
L 1084 2881 
L 1084 941 
Q 1084 700 1114 631 
Q 1144 563 1211 522 
Q 1278 481 1403 481 
Q 1497 481 1650 503 
z
" transform="scale(0.015625)"/>
       </defs>
       <use xlink:href="#ArialMT-63"/>
       <use xlink:href="#ArialMT-6f" transform="translate(50 0)"/>
       <use xlink:href="#ArialMT-6e" transform="translate(105.615234 0)"/>
       <use xlink:href="#ArialMT-74" transform="translate(161.230469 0)"/>
       <use xlink:href="#ArialMT-61" transform="translate(189.013672 0)"/>
       <use xlink:href="#ArialMT-63" transform="translate(244.628906 0)"/>
       <use xlink:href="#ArialMT-74" transform="translate(294.628906 0)"/>
      </g>
     </g>
    </g>
    <g id="xtick_4">
     <g id="text_4">
      <!-- electrocutie -->
      <g style="fill: #262626" transform="translate(388.014325 384.896902) rotate(-30) scale(0.121 -0.121)">
       <defs>
        <path id="ArialMT-65" d="M 2694 1069 
L 3275 997 
Q 3138 488 2766 206 
Q 2394 -75 1816 -75 
Q 1088 -75 661 373 
Q 234 822 234 1631 
Q 234 2469 665 2931 
Q 1097 3394 1784 3394 
Q 2450 3394 2872 2941 
Q 3294 2488 3294 1666 
Q 3294 1616 3291 1516 
L 816 1516 
Q 847 969 1125 678 
Q 1403 388 1819 388 
Q 2128 388 2347 550 
Q 2566 713 2694 1069 
z
M 847 1978 
L 2700 1978 
Q 2663 2397 2488 2606 
Q 2219 2931 1791 2931 
Q 1403 2931 1139 2672 
Q 875 2413 847 1978 
z
" transform="scale(0.015625)"/>
        <path id="ArialMT-75" d="M 2597 0 
L 2597 488 
Q 2209 -75 1544 -75 
Q 1250 -75 995 37 
Q 741 150 617 320 
Q 494 491 444 738 
Q 409 903 409 1263 
L 409 3319 
L 972 3319 
L 972 1478 
Q 972 1038 1006 884 
Q 1059 663 1231 536 
Q 1403 409 1656 409 
Q 1909 409 2131 539 
Q 2353 669 2445 892 
Q 2538 1116 2538 1541 
L 2538 3319 
L 3100 3319 
L 3100 0 
L 2597 0 
z
" transform="scale(0.015625)"/>
       </defs>
       <use xlink:href="#ArialMT-65"/>
       <use xlink:href="#ArialMT-6c" transform="translate(55.615234 0)"/>
       <use xlink:href="#ArialMT-65" transform="translate(77.832031 0)"/>
       <use xlink:href="#ArialMT-63" transform="translate(133.447266 0)"/>
       <use xlink:href="#ArialMT-74" transform="translate(183.447266 0)"/>
       <use xlink:href="#ArialMT-72" transform="translate(211.230469 0)"/>
       <use xlink:href="#ArialMT-6f" transform="translate(244.53125 0)"/>
       <use xlink:href="#ArialMT-63" transform="translate(300.146484 0)"/>
       <use xlink:href="#ArialMT-75" transform="translate(350.146484 0)"/>
       <use xlink:href="#ArialMT-74" transform="translate(405.761719 0)"/>
       <use xlink:href="#ArialMT-69" transform="translate(433.544922 0)"/>
       <use xlink:href="#ArialMT-65" transform="translate(455.761719 0)"/>
      </g>
     </g>
    </g>
    <g id="xtick_5">
     <g id="text_5">
      <!-- chimica -->
      <g style="fill: #262626" transform="translate(501.736121 374.467269) rotate(-30) scale(0.121 -0.121)">
       <defs>
        <path id="ArialMT-6d" d="M 422 0 
L 422 3319 
L 925 3319 
L 925 2853 
Q 1081 3097 1340 3245 
Q 1600 3394 1931 3394 
Q 2300 3394 2536 3241 
Q 2772 3088 2869 2813 
Q 3263 3394 3894 3394 
Q 4388 3394 4653 3120 
Q 4919 2847 4919 2278 
L 4919 0 
L 4359 0 
L 4359 2091 
Q 4359 2428 4304 2576 
Q 4250 2725 4106 2815 
Q 3963 2906 3769 2906 
Q 3419 2906 3187 2673 
Q 2956 2441 2956 1928 
L 2956 0 
L 2394 0 
L 2394 2156 
Q 2394 2531 2256 2718 
Q 2119 2906 1806 2906 
Q 1569 2906 1367 2781 
Q 1166 2656 1075 2415 
Q 984 2175 984 1722 
L 984 0 
L 422 0 
z
" transform="scale(0.015625)"/>
       </defs>
       <use xlink:href="#ArialMT-63"/>
       <use xlink:href="#ArialMT-68" transform="translate(50 0)"/>
       <use xlink:href="#ArialMT-69" transform="translate(105.615234 0)"/>
       <use xlink:href="#ArialMT-6d" transform="translate(127.832031 0)"/>
       <use xlink:href="#ArialMT-69" transform="translate(211.132812 0)"/>
       <use xlink:href="#ArialMT-63" transform="translate(233.349609 0)"/>
       <use xlink:href="#ArialMT-61" transform="translate(283.349609 0)"/>
      </g>
     </g>
    </g>
    <g id="xtick_6">
     <g id="text_6">
      <!-- solara -->
      <g style="fill: #262626" transform="translate(604.373199 370.437402) rotate(-30) scale(0.121 -0.121)">
       <defs>
        <path id="ArialMT-73" d="M 197 991 
L 753 1078 
Q 800 744 1014 566 
Q 1228 388 1613 388 
Q 2000 388 2187 545 
Q 2375 703 2375 916 
Q 2375 1106 2209 1216 
Q 2094 1291 1634 1406 
Q 1016 1563 777 1677 
Q 538 1791 414 1992 
Q 291 2194 291 2438 
Q 291 2659 392 2848 
Q 494 3038 669 3163 
Q 800 3259 1026 3326 
Q 1253 3394 1513 3394 
Q 1903 3394 2198 3281 
Q 2494 3169 2634 2976 
Q 2775 2784 2828 2463 
L 2278 2388 
Q 2241 2644 2061 2787 
Q 1881 2931 1553 2931 
Q 1166 2931 1000 2803 
Q 834 2675 834 2503 
Q 834 2394 903 2306 
Q 972 2216 1119 2156 
Q 1203 2125 1616 2013 
Q 2213 1853 2448 1751 
Q 2684 1650 2818 1456 
Q 2953 1263 2953 975 
Q 2953 694 2789 445 
Q 2625 197 2315 61 
Q 2006 -75 1616 -75 
Q 969 -75 630 194 
Q 291 463 197 991 
z
" transform="scale(0.015625)"/>
       </defs>
       <use xlink:href="#ArialMT-73"/>
       <use xlink:href="#ArialMT-6f" transform="translate(50 0)"/>
       <use xlink:href="#ArialMT-6c" transform="translate(105.615234 0)"/>
       <use xlink:href="#ArialMT-61" transform="translate(127.832031 0)"/>
       <use xlink:href="#ArialMT-72" transform="translate(183.447266 0)"/>
       <use xlink:href="#ArialMT-61" transform="translate(216.748047 0)"/>
      </g>
     </g>
    </g>
    <g id="xtick_7">
     <g id="text_7">
      <!-- explozie -->
      <g style="fill: #262626" transform="translate(690.1245 376.156543) rotate(-30) scale(0.121 -0.121)">
       <defs>
        <path id="ArialMT-78" d="M 47 0 
L 1259 1725 
L 138 3319 
L 841 3319 
L 1350 2541 
Q 1494 2319 1581 2169 
Q 1719 2375 1834 2534 
L 2394 3319 
L 3066 3319 
L 1919 1756 
L 3153 0 
L 2463 0 
L 1781 1031 
L 1600 1309 
L 728 0 
L 47 0 
z
" transform="scale(0.015625)"/>
        <path id="ArialMT-70" d="M 422 -1272 
L 422 3319 
L 934 3319 
L 934 2888 
Q 1116 3141 1344 3267 
Q 1572 3394 1897 3394 
Q 2322 3394 2647 3175 
Q 2972 2956 3137 2557 
Q 3303 2159 3303 1684 
Q 3303 1175 3120 767 
Q 2938 359 2589 142 
Q 2241 -75 1856 -75 
Q 1575 -75 1351 44 
Q 1128 163 984 344 
L 984 -1272 
L 422 -1272 
z
M 931 1641 
Q 931 1000 1190 694 
Q 1450 388 1819 388 
Q 2194 388 2461 705 
Q 2728 1022 2728 1688 
Q 2728 2322 2467 2637 
Q 2206 2953 1844 2953 
Q 1484 2953 1207 2617 
Q 931 2281 931 1641 
z
" transform="scale(0.015625)"/>
        <path id="ArialMT-7a" d="M 125 0 
L 125 456 
L 2238 2881 
Q 1878 2863 1603 2863 
L 250 2863 
L 250 3319 
L 2963 3319 
L 2963 2947 
L 1166 841 
L 819 456 
Q 1197 484 1528 484 
L 3063 484 
L 3063 0 
L 125 0 
z
" transform="scale(0.015625)"/>
       </defs>
       <use xlink:href="#ArialMT-65"/>
       <use xlink:href="#ArialMT-78" transform="translate(55.615234 0)"/>
       <use xlink:href="#ArialMT-70" transform="translate(105.615234 0)"/>
       <use xlink:href="#ArialMT-6c" transform="translate(161.230469 0)"/>
       <use xlink:href="#ArialMT-6f" transform="translate(183.447266 0)"/>
       <use xlink:href="#ArialMT-7a" transform="translate(239.0625 0)"/>
       <use xlink:href="#ArialMT-69" transform="translate(289.0625 0)"/>
       <use xlink:href="#ArialMT-65" transform="translate(311.279297 0)"/>
      </g>
     </g>
    </g>
   </g>
   <g id="matplotlib.axis_2">
    <g id="ytick_1">
     <g id="line2d_1">
      <path d="M 108 336.96 
L 777.6 336.96 
" clip-path="url(#p78fc7edc43)" style="fill: none; stroke-dasharray: 2.22,0.96; stroke-dashoffset: 0; stroke: #cccccc; stroke-opacity: 0.5; stroke-width: 0.6"/>
     </g>
     <g id="text_8">
      <!-- 0 -->
      <g style="fill: #262626" transform="translate(91.771266 341.290477) scale(0.121 -0.121)">
       <defs>
        <path id="ArialMT-30" d="M 266 2259 
Q 266 3072 433 3567 
Q 600 4063 929 4331 
Q 1259 4600 1759 4600 
Q 2128 4600 2406 4451 
Q 2684 4303 2865 4023 
Q 3047 3744 3150 3342 
Q 3253 2941 3253 2259 
Q 3253 1453 3087 958 
Q 2922 463 2592 192 
Q 2263 -78 1759 -78 
Q 1097 -78 719 397 
Q 266 969 266 2259 
z
M 844 2259 
Q 844 1131 1108 757 
Q 1372 384 1759 384 
Q 2147 384 2411 759 
Q 2675 1134 2675 2259 
Q 2675 3391 2411 3762 
Q 2147 4134 1753 4134 
Q 1366 4134 1134 3806 
Q 844 3388 844 2259 
z
" transform="scale(0.015625)"/>
       </defs>
       <use xlink:href="#ArialMT-30"/>
      </g>
     </g>
    </g>
    <g id="ytick_2">
     <g id="line2d_2">
      <path d="M 108 279.936 
L 777.6 279.936 
" clip-path="url(#p78fc7edc43)" style="fill: none; stroke-dasharray: 2.22,0.96; stroke-dashoffset: 0; stroke: #cccccc; stroke-opacity: 0.5; stroke-width: 0.6"/>
     </g>
     <g id="text_9">
      <!-- 20 -->
      <g style="fill: #262626" transform="translate(85.042531 284.266477) scale(0.121 -0.121)">
       <defs>
        <path id="ArialMT-32" d="M 3222 541 
L 3222 0 
L 194 0 
Q 188 203 259 391 
Q 375 700 629 1000 
Q 884 1300 1366 1694 
Q 2113 2306 2375 2664 
Q 2638 3022 2638 3341 
Q 2638 3675 2398 3904 
Q 2159 4134 1775 4134 
Q 1369 4134 1125 3890 
Q 881 3647 878 3216 
L 300 3275 
Q 359 3922 746 4261 
Q 1134 4600 1788 4600 
Q 2447 4600 2831 4234 
Q 3216 3869 3216 3328 
Q 3216 3053 3103 2787 
Q 2991 2522 2730 2228 
Q 2469 1934 1863 1422 
Q 1356 997 1212 845 
Q 1069 694 975 541 
L 3222 541 
z
" transform="scale(0.015625)"/>
       </defs>
       <use xlink:href="#ArialMT-32"/>
       <use xlink:href="#ArialMT-30" transform="translate(55.615234 0)"/>
      </g>
     </g>
    </g>
    <g id="ytick_3">
     <g id="line2d_3">
      <path d="M 108 222.912 
L 777.6 222.912 
" clip-path="url(#p78fc7edc43)" style="fill: none; stroke-dasharray: 2.22,0.96; stroke-dashoffset: 0; stroke: #cccccc; stroke-opacity: 0.5; stroke-width: 0.6"/>
     </g>
     <g id="text_10">
      <!-- 40 -->
      <g style="fill: #262626" transform="translate(85.042531 227.242477) scale(0.121 -0.121)">
       <defs>
        <path id="ArialMT-34" d="M 2069 0 
L 2069 1097 
L 81 1097 
L 81 1613 
L 2172 4581 
L 2631 4581 
L 2631 1613 
L 3250 1613 
L 3250 1097 
L 2631 1097 
L 2631 0 
L 2069 0 
z
M 2069 1613 
L 2069 3678 
L 634 1613 
L 2069 1613 
z
" transform="scale(0.015625)"/>
       </defs>
       <use xlink:href="#ArialMT-34"/>
       <use xlink:href="#ArialMT-30" transform="translate(55.615234 0)"/>
      </g>
     </g>
    </g>
    <g id="ytick_4">
     <g id="line2d_4">
      <path d="M 108 165.888 
L 777.6 165.888 
" clip-path="url(#p78fc7edc43)" style="fill: none; stroke-dasharray: 2.22,0.96; stroke-dashoffset: 0; stroke: #cccccc; stroke-opacity: 0.5; stroke-width: 0.6"/>
     </g>
     <g id="text_11">
      <!-- 60 -->
      <g style="fill: #262626" transform="translate(85.042531 170.218477) scale(0.121 -0.121)">
       <defs>
        <path id="ArialMT-36" d="M 3184 3459 
L 2625 3416 
Q 2550 3747 2413 3897 
Q 2184 4138 1850 4138 
Q 1581 4138 1378 3988 
Q 1113 3794 959 3422 
Q 806 3050 800 2363 
Q 1003 2672 1297 2822 
Q 1591 2972 1913 2972 
Q 2475 2972 2870 2558 
Q 3266 2144 3266 1488 
Q 3266 1056 3080 686 
Q 2894 316 2569 119 
Q 2244 -78 1831 -78 
Q 1128 -78 684 439 
Q 241 956 241 2144 
Q 241 3472 731 4075 
Q 1159 4600 1884 4600 
Q 2425 4600 2770 4297 
Q 3116 3994 3184 3459 
z
M 888 1484 
Q 888 1194 1011 928 
Q 1134 663 1356 523 
Q 1578 384 1822 384 
Q 2178 384 2434 671 
Q 2691 959 2691 1453 
Q 2691 1928 2437 2201 
Q 2184 2475 1800 2475 
Q 1419 2475 1153 2201 
Q 888 1928 888 1484 
z
" transform="scale(0.015625)"/>
       </defs>
       <use xlink:href="#ArialMT-36"/>
       <use xlink:href="#ArialMT-30" transform="translate(55.615234 0)"/>
      </g>
     </g>
    </g>
    <g id="ytick_5">
     <g id="line2d_5">
      <path d="M 108 108.864 
L 777.6 108.864 
" clip-path="url(#p78fc7edc43)" style="fill: none; stroke-dasharray: 2.22,0.96; stroke-dashoffset: 0; stroke: #cccccc; stroke-opacity: 0.5; stroke-width: 0.6"/>
     </g>
     <g id="text_12">
      <!-- 80 -->
      <g style="fill: #262626" transform="translate(85.042531 113.194477) scale(0.121 -0.121)">
       <defs>
        <path id="ArialMT-38" d="M 1131 2484 
Q 781 2613 612 2850 
Q 444 3088 444 3419 
Q 444 3919 803 4259 
Q 1163 4600 1759 4600 
Q 2359 4600 2725 4251 
Q 3091 3903 3091 3403 
Q 3091 3084 2923 2848 
Q 2756 2613 2416 2484 
Q 2838 2347 3058 2040 
Q 3278 1734 3278 1309 
Q 3278 722 2862 322 
Q 2447 -78 1769 -78 
Q 1091 -78 675 323 
Q 259 725 259 1325 
Q 259 1772 486 2073 
Q 713 2375 1131 2484 
z
M 1019 3438 
Q 1019 3113 1228 2906 
Q 1438 2700 1772 2700 
Q 2097 2700 2305 2904 
Q 2513 3109 2513 3406 
Q 2513 3716 2298 3927 
Q 2084 4138 1766 4138 
Q 1444 4138 1231 3931 
Q 1019 3725 1019 3438 
z
M 838 1322 
Q 838 1081 952 856 
Q 1066 631 1291 507 
Q 1516 384 1775 384 
Q 2178 384 2440 643 
Q 2703 903 2703 1303 
Q 2703 1709 2433 1975 
Q 2163 2241 1756 2241 
Q 1359 2241 1098 1978 
Q 838 1716 838 1322 
z
" transform="scale(0.015625)"/>
       </defs>
       <use xlink:href="#ArialMT-38"/>
       <use xlink:href="#ArialMT-30" transform="translate(55.615234 0)"/>
      </g>
     </g>
    </g>
    <g id="ytick_6">
     <g id="line2d_6">
      <path d="M 108 51.84 
L 777.6 51.84 
" clip-path="url(#p78fc7edc43)" style="fill: none; stroke-dasharray: 2.22,0.96; stroke-dashoffset: 0; stroke: #cccccc; stroke-opacity: 0.5; stroke-width: 0.6"/>
     </g>
     <g id="text_13">
      <!-- 100 -->
      <g style="fill: #262626" transform="translate(78.313797 56.170477) scale(0.121 -0.121)">
       <defs>
        <path id="ArialMT-31" d="M 2384 0 
L 1822 0 
L 1822 3584 
Q 1619 3391 1289 3197 
Q 959 3003 697 2906 
L 697 3450 
Q 1169 3672 1522 3987 
Q 1875 4303 2022 4600 
L 2384 4600 
L 2384 0 
z
" transform="scale(0.015625)"/>
       </defs>
       <use xlink:href="#ArialMT-31"/>
       <use xlink:href="#ArialMT-30" transform="translate(55.615234 0)"/>
       <use xlink:href="#ArialMT-30" transform="translate(111.230469 0)"/>
      </g>
     </g>
    </g>
    <g id="text_14">
     <!-- Zile de spitalizare -->
     <g style="fill: #262626" transform="translate(71.690297 245.753156) rotate(-90) scale(0.132 -0.132)">
      <defs>
       <path id="ArialMT-5a" d="M 128 0 
L 128 563 
L 2475 3497 
Q 2725 3809 2950 4041 
L 394 4041 
L 394 4581 
L 3675 4581 
L 3675 4041 
L 1103 863 
L 825 541 
L 3750 541 
L 3750 0 
L 128 0 
z
" transform="scale(0.015625)"/>
       <path id="ArialMT-20" transform="scale(0.015625)"/>
      </defs>
      <use xlink:href="#ArialMT-5a"/>
      <use xlink:href="#ArialMT-69" transform="translate(61.083984 0)"/>
      <use xlink:href="#ArialMT-6c" transform="translate(83.300781 0)"/>
      <use xlink:href="#ArialMT-65" transform="translate(105.517578 0)"/>
      <use xlink:href="#ArialMT-20" transform="translate(161.132812 0)"/>
      <use xlink:href="#ArialMT-64" transform="translate(188.916016 0)"/>
      <use xlink:href="#ArialMT-65" transform="translate(244.53125 0)"/>
      <use xlink:href="#ArialMT-20" transform="translate(300.146484 0)"/>
      <use xlink:href="#ArialMT-73" transform="translate(327.929688 0)"/>
      <use xlink:href="#ArialMT-70" transform="translate(377.929688 0)"/>
      <use xlink:href="#ArialMT-69" transform="translate(433.544922 0)"/>
      <use xlink:href="#ArialMT-74" transform="translate(455.761719 0)"/>
      <use xlink:href="#ArialMT-61" transform="translate(483.544922 0)"/>
      <use xlink:href="#ArialMT-6c" transform="translate(539.160156 0)"/>
      <use xlink:href="#ArialMT-69" transform="translate(561.376953 0)"/>
      <use xlink:href="#ArialMT-7a" transform="translate(583.59375 0)"/>
      <use xlink:href="#ArialMT-61" transform="translate(633.59375 0)"/>
      <use xlink:href="#ArialMT-72" transform="translate(689.208984 0)"/>
      <use xlink:href="#ArialMT-65" transform="translate(722.509766 0)"/>
     </g>
    </g>
   </g>
   <g id="patch_3">
    <path d="M 129.522857 313.00992 
L 182.134286 313.00992 
L 182.134286 263.68416 
L 129.522857 263.68416 
L 129.522857 313.00992 
z
" clip-path="url(#p78fc7edc43)" style="fill: #abc9ea; stroke: #6f6f6f; stroke-width: 1.2; stroke-linejoin: miter"/>
   </g>
   <g id="line2d_7">
    <path d="M 155.828571 313.00992 
L 155.828571 336.96 
" clip-path="url(#p78fc7edc43)" style="fill: none; stroke: #000000; stroke-width: 2.2"/>
   </g>
   <g id="line2d_8">
    <path d="M 155.828571 263.68416 
L 155.828571 202.9536 
" clip-path="url(#p78fc7edc43)" style="fill: none; stroke: #6f6f6f; stroke-width: 1.2"/>
   </g>
   <g id="line2d_9">
    <path d="M 142.675714 336.96 
L 168.981429 336.96 
" clip-path="url(#p78fc7edc43)" style="fill: none; stroke: #6f6f6f; stroke-width: 1.2; stroke-linecap: round"/>
   </g>
   <g id="line2d_10">
    <path d="M 142.675714 202.9536 
L 168.981429 202.9536 
" clip-path="url(#p78fc7edc43)" style="fill: none; stroke: #6f6f6f; stroke-width: 1.2; stroke-linecap: round"/>
   </g>
   <g id="line2d_11"/>
   <g id="patch_4">
    <path d="M 225.18 308.16288 
L 277.791429 308.16288 
L 277.791429 298.18368 
L 225.18 298.18368 
L 225.18 308.16288 
z
" clip-path="url(#p78fc7edc43)" style="fill: #efb792; stroke: #6f6f6f; stroke-width: 1.2; stroke-linejoin: miter"/>
   </g>
   <g id="line2d_12">
    <path d="M 251.485714 308.16288 
L 251.485714 322.704 
" clip-path="url(#p78fc7edc43)" style="fill: none; stroke: #000000; stroke-width: 2.2"/>
   </g>
   <g id="line2d_13">
    <path d="M 251.485714 298.18368 
L 251.485714 285.6384 
" clip-path="url(#p78fc7edc43)" style="fill: none; stroke: #6f6f6f; stroke-width: 1.2"/>
   </g>
   <g id="line2d_14">
    <path d="M 238.332857 322.704 
L 264.638571 322.704 
" clip-path="url(#p78fc7edc43)" style="fill: none; stroke: #6f6f6f; stroke-width: 1.2; stroke-linecap: round"/>
   </g>
   <g id="line2d_15">
    <path d="M 238.332857 285.6384 
L 264.638571 285.6384 
" clip-path="url(#p78fc7edc43)" style="fill: none; stroke: #6f6f6f; stroke-width: 1.2; stroke-linecap: round"/>
   </g>
   <g id="line2d_16"/>
   <g id="patch_5">
    <path d="M 320.837143 305.02656 
L 373.448571 305.02656 
L 373.448571 302.46048 
L 320.837143 302.46048 
L 320.837143 305.02656 
z
" clip-path="url(#p78fc7edc43)" style="fill: #98daa7; stroke: #6f6f6f; stroke-width: 1.2; stroke-linejoin: miter"/>
   </g>
   <g id="line2d_17">
    <path d="M 347.142857 305.02656 
L 347.142857 308.448 
" clip-path="url(#p78fc7edc43)" style="fill: none; stroke: #000000; stroke-width: 2.2"/>
   </g>
   <g id="line2d_18">
    <path d="M 347.142857 302.46048 
L 347.142857 302.46048 
" clip-path="url(#p78fc7edc43)" style="fill: none; stroke: #6f6f6f; stroke-width: 1.2"/>
   </g>
   <g id="line2d_19">
    <path d="M 333.99 308.448 
L 360.295714 308.448 
" clip-path="url(#p78fc7edc43)" style="fill: none; stroke: #6f6f6f; stroke-width: 1.2; stroke-linecap: round"/>
   </g>
   <g id="line2d_20">
    <path d="M 333.99 302.46048 
L 360.295714 302.46048 
" clip-path="url(#p78fc7edc43)" style="fill: none; stroke: #6f6f6f; stroke-width: 1.2; stroke-linecap: round"/>
   </g>
   <g id="line2d_21"/>
   <g id="patch_6">
    <path d="M 416.494286 321.2784 
L 469.105714 321.2784 
L 469.105714 309.58848 
L 416.494286 309.58848 
L 416.494286 321.2784 
z
" clip-path="url(#p78fc7edc43)" style="fill: #f2aba8; stroke: #6f6f6f; stroke-width: 1.2; stroke-linejoin: miter"/>
   </g>
   <g id="line2d_22">
    <path d="M 442.8 321.2784 
L 442.8 336.96 
" clip-path="url(#p78fc7edc43)" style="fill: none; stroke: #000000; stroke-width: 2.2"/>
   </g>
   <g id="line2d_23">
    <path d="M 442.8 309.58848 
L 442.8 294.192 
" clip-path="url(#p78fc7edc43)" style="fill: none; stroke: #6f6f6f; stroke-width: 1.2"/>
   </g>
   <g id="line2d_24">
    <path d="M 429.647143 336.96 
L 455.952857 336.96 
" clip-path="url(#p78fc7edc43)" style="fill: none; stroke: #6f6f6f; stroke-width: 1.2; stroke-linecap: round"/>
   </g>
   <g id="line2d_25">
    <path d="M 429.647143 294.192 
L 455.952857 294.192 
" clip-path="url(#p78fc7edc43)" style="fill: none; stroke: #6f6f6f; stroke-width: 1.2; stroke-linecap: round"/>
   </g>
   <g id="line2d_26"/>
   <g id="patch_7">
    <path d="M 512.151429 326.268 
L 564.762857 326.268 
L 564.762857 315.86112 
L 512.151429 315.86112 
L 512.151429 326.268 
z
" clip-path="url(#p78fc7edc43)" style="fill: #d3c4f6; stroke: #6f6f6f; stroke-width: 1.2; stroke-linejoin: miter"/>
   </g>
   <g id="line2d_27">
    <path d="M 538.457143 326.268 
L 538.457143 336.96 
" clip-path="url(#p78fc7edc43)" style="fill: none; stroke: #000000; stroke-width: 2.2"/>
   </g>
   <g id="line2d_28">
    <path d="M 538.457143 315.86112 
L 538.457143 311.86944 
" clip-path="url(#p78fc7edc43)" style="fill: none; stroke: #6f6f6f; stroke-width: 1.2"/>
   </g>
   <g id="line2d_29">
    <path d="M 525.304286 336.96 
L 551.61 336.96 
" clip-path="url(#p78fc7edc43)" style="fill: none; stroke: #6f6f6f; stroke-width: 1.2; stroke-linecap: round"/>
   </g>
   <g id="line2d_30">
    <path d="M 525.304286 311.86944 
L 551.61 311.86944 
" clip-path="url(#p78fc7edc43)" style="fill: none; stroke: #6f6f6f; stroke-width: 1.2; stroke-linecap: round"/>
   </g>
   <g id="line2d_31"/>
   <g id="patch_8">
    <path d="M 607.808571 331.2576 
L 660.42 331.2576 
L 660.42 325.5552 
L 607.808571 325.5552 
L 607.808571 331.2576 
z
" clip-path="url(#p78fc7edc43)" style="fill: #d6bba3; stroke: #6f6f6f; stroke-width: 1.2; stroke-linejoin: miter"/>
   </g>
   <g id="line2d_32">
    <path d="M 634.114286 331.2576 
L 634.114286 334.1088 
" clip-path="url(#p78fc7edc43)" style="fill: none; stroke: #000000; stroke-width: 2.2"/>
   </g>
   <g id="line2d_33">
    <path d="M 634.114286 325.5552 
L 634.114286 319.8528 
" clip-path="url(#p78fc7edc43)" style="fill: none; stroke: #6f6f6f; stroke-width: 1.2"/>
   </g>
   <g id="line2d_34">
    <path d="M 620.961429 334.1088 
L 647.267143 334.1088 
" clip-path="url(#p78fc7edc43)" style="fill: none; stroke: #6f6f6f; stroke-width: 1.2; stroke-linecap: round"/>
   </g>
   <g id="line2d_35">
    <path d="M 620.961429 319.8528 
L 647.267143 319.8528 
" clip-path="url(#p78fc7edc43)" style="fill: none; stroke: #6f6f6f; stroke-width: 1.2; stroke-linecap: round"/>
   </g>
   <g id="line2d_36"/>
   <g id="patch_9">
    <path d="M 703.465714 317.85696 
L 756.077143 317.85696 
L 756.077143 284.2128 
L 703.465714 284.2128 
L 703.465714 317.85696 
z
" clip-path="url(#p78fc7edc43)" style="fill: #f1b9e0; stroke: #6f6f6f; stroke-width: 1.2; stroke-linejoin: miter"/>
   </g>
   <g id="line2d_37">
    <path d="M 729.771429 317.85696 
L 729.771429 336.96 
" clip-path="url(#p78fc7edc43)" style="fill: none; stroke: #000000; stroke-width: 2.2"/>
   </g>
   <g id="line2d_38">
    <path d="M 729.771429 284.2128 
L 729.771429 247.71744 
" clip-path="url(#p78fc7edc43)" style="fill: none; stroke: #6f6f6f; stroke-width: 1.2"/>
   </g>
   <g id="line2d_39">
    <path d="M 716.618571 336.96 
L 742.924286 336.96 
" clip-path="url(#p78fc7edc43)" style="fill: none; stroke: #6f6f6f; stroke-width: 1.2; stroke-linecap: round"/>
   </g>
   <g id="line2d_40">
    <path d="M 716.618571 247.71744 
L 742.924286 247.71744 
" clip-path="url(#p78fc7edc43)" style="fill: none; stroke: #6f6f6f; stroke-width: 1.2; stroke-linecap: round"/>
   </g>
   <g id="line2d_41"/>
   <g id="line2d_42">
    <path d="M 129.522857 288.77472 
L 182.134286 288.77472 
" clip-path="url(#p78fc7edc43)" style="fill: none; stroke: #6f6f6f; stroke-width: 1.2"/>
   </g>
   <g id="line2d_43">
    <path d="M 225.18 303.88608 
L 277.791429 303.88608 
" clip-path="url(#p78fc7edc43)" style="fill: none; stroke: #6f6f6f; stroke-width: 1.2"/>
   </g>
   <g id="line2d_44">
    <path d="M 320.837143 305.02656 
L 373.448571 305.02656 
" clip-path="url(#p78fc7edc43)" style="fill: none; stroke: #6f6f6f; stroke-width: 1.2"/>
   </g>
   <g id="line2d_45">
    <path d="M 416.494286 312.012 
L 469.105714 312.012 
" clip-path="url(#p78fc7edc43)" style="fill: none; stroke: #6f6f6f; stroke-width: 1.2"/>
   </g>
   <g id="line2d_46">
    <path d="M 512.151429 315.86112 
L 564.762857 315.86112 
" clip-path="url(#p78fc7edc43)" style="fill: none; stroke: #6f6f6f; stroke-width: 1.2"/>
   </g>
   <g id="line2d_47">
    <path d="M 607.808571 329.26176 
L 660.42 329.26176 
" clip-path="url(#p78fc7edc43)" style="fill: none; stroke: #6f6f6f; stroke-width: 1.2"/>
   </g>
   <g id="line2d_48">
    <path d="M 703.465714 308.448 
L 756.077143 308.448 
" clip-path="url(#p78fc7edc43)" style="fill: none; stroke: #6f6f6f; stroke-width: 1.2"/>
   </g>
   <g id="patch_10">
    <path d="M 108 336.96 
L 108 51.84 
" style="fill: none; stroke: #cccccc; stroke-width: 0.8; stroke-linejoin: miter; stroke-linecap: square"/>
   </g>
   <g id="patch_11">
    <path d="M 777.6 336.96 
L 777.6 51.84 
" style="fill: none; stroke: #cccccc; stroke-width: 0.8; stroke-linejoin: miter; stroke-linecap: square"/>
   </g>
   <g id="patch_12">
    <path d="M 108 336.96 
L 777.6 336.96 
" style="fill: none; stroke: #cccccc; stroke-width: 0.8; stroke-linejoin: miter; stroke-linecap: square"/>
   </g>
   <g id="patch_13">
    <path d="M 108 51.84 
L 777.6 51.84 
" style="fill: none; stroke: #cccccc; stroke-width: 0.8; stroke-linejoin: miter; stroke-linecap: square"/>
   </g>
   <g id="text_15">
    <!-- n = 1343 -->
    <g style="fill: #262626" transform="translate(138.187868 1483.882031) scale(0.09 -0.09)">
     <defs>
      <path id="ArialMT-3d" d="M 3381 2694 
L 356 2694 
L 356 3219 
L 3381 3219 
L 3381 2694 
z
M 3381 1303 
L 356 1303 
L 356 1828 
L 3381 1828 
L 3381 1303 
z
" transform="scale(0.015625)"/>
      <path id="ArialMT-33" d="M 269 1209 
L 831 1284 
Q 928 806 1161 595 
Q 1394 384 1728 384 
Q 2125 384 2398 659 
Q 2672 934 2672 1341 
Q 2672 1728 2419 1979 
Q 2166 2231 1775 2231 
Q 1616 2231 1378 2169 
L 1441 2663 
Q 1497 2656 1531 2656 
Q 1891 2656 2178 2843 
Q 2466 3031 2466 3422 
Q 2466 3731 2256 3934 
Q 2047 4138 1716 4138 
Q 1388 4138 1169 3931 
Q 950 3725 888 3313 
L 325 3413 
Q 428 3978 793 4289 
Q 1159 4600 1703 4600 
Q 2078 4600 2393 4439 
Q 2709 4278 2876 4000 
Q 3044 3722 3044 3409 
Q 3044 3113 2884 2869 
Q 2725 2625 2413 2481 
Q 2819 2388 3044 2092 
Q 3269 1797 3269 1353 
Q 3269 753 2831 336 
Q 2394 -81 1725 -81 
Q 1122 -81 723 278 
Q 325 638 269 1209 
z
" transform="scale(0.015625)"/>
     </defs>
     <use xlink:href="#ArialMT-6e"/>
     <use xlink:href="#ArialMT-20" transform="translate(55.615234 0)"/>
     <use xlink:href="#ArialMT-3d" transform="translate(83.398438 0)"/>
     <use xlink:href="#ArialMT-20" transform="translate(141.796875 0)"/>
     <use xlink:href="#ArialMT-31" transform="translate(169.580078 0)"/>
     <use xlink:href="#ArialMT-33" transform="translate(225.195312 0)"/>
     <use xlink:href="#ArialMT-34" transform="translate(280.810547 0)"/>
     <use xlink:href="#ArialMT-33" transform="translate(336.425781 0)"/>
    </g>
   </g>
   <g id="text_16">
    <!-- n = 1073 -->
    <g style="fill: #262626" transform="translate(233.845011 1483.882031) scale(0.09 -0.09)">
     <defs>
      <path id="ArialMT-37" d="M 303 3981 
L 303 4522 
L 3269 4522 
L 3269 4084 
Q 2831 3619 2401 2847 
Q 1972 2075 1738 1259 
Q 1569 684 1522 0 
L 944 0 
Q 953 541 1156 1306 
Q 1359 2072 1739 2783 
Q 2119 3494 2547 3981 
L 303 3981 
z
" transform="scale(0.015625)"/>
     </defs>
     <use xlink:href="#ArialMT-6e"/>
     <use xlink:href="#ArialMT-20" transform="translate(55.615234 0)"/>
     <use xlink:href="#ArialMT-3d" transform="translate(83.398438 0)"/>
     <use xlink:href="#ArialMT-20" transform="translate(141.796875 0)"/>
     <use xlink:href="#ArialMT-31" transform="translate(169.580078 0)"/>
     <use xlink:href="#ArialMT-30" transform="translate(225.195312 0)"/>
     <use xlink:href="#ArialMT-37" transform="translate(280.810547 0)"/>
     <use xlink:href="#ArialMT-33" transform="translate(336.425781 0)"/>
    </g>
   </g>
   <g id="text_17">
    <!-- n = 215 -->
    <g style="fill: #262626" transform="translate(332.004576 1483.882031) scale(0.09 -0.09)">
     <defs>
      <path id="ArialMT-35" d="M 266 1200 
L 856 1250 
Q 922 819 1161 601 
Q 1400 384 1738 384 
Q 2144 384 2425 690 
Q 2706 997 2706 1503 
Q 2706 1984 2436 2262 
Q 2166 2541 1728 2541 
Q 1456 2541 1237 2417 
Q 1019 2294 894 2097 
L 366 2166 
L 809 4519 
L 3088 4519 
L 3088 3981 
L 1259 3981 
L 1013 2750 
Q 1425 3038 1878 3038 
Q 2478 3038 2890 2622 
Q 3303 2206 3303 1553 
Q 3303 931 2941 478 
Q 2500 -78 1738 -78 
Q 1113 -78 717 272 
Q 322 622 266 1200 
z
" transform="scale(0.015625)"/>
     </defs>
     <use xlink:href="#ArialMT-6e"/>
     <use xlink:href="#ArialMT-20" transform="translate(55.615234 0)"/>
     <use xlink:href="#ArialMT-3d" transform="translate(83.398438 0)"/>
     <use xlink:href="#ArialMT-20" transform="translate(141.796875 0)"/>
     <use xlink:href="#ArialMT-32" transform="translate(169.580078 0)"/>
     <use xlink:href="#ArialMT-31" transform="translate(225.195312 0)"/>
     <use xlink:href="#ArialMT-35" transform="translate(280.810547 0)"/>
    </g>
   </g>
   <g id="text_18">
    <!-- n = 88 -->
    <g style="fill: #262626" transform="translate(430.164141 1483.882031) scale(0.09 -0.09)">
     <use xlink:href="#ArialMT-6e"/>
     <use xlink:href="#ArialMT-20" transform="translate(55.615234 0)"/>
     <use xlink:href="#ArialMT-3d" transform="translate(83.398438 0)"/>
     <use xlink:href="#ArialMT-20" transform="translate(141.796875 0)"/>
     <use xlink:href="#ArialMT-38" transform="translate(169.580078 0)"/>
     <use xlink:href="#ArialMT-38" transform="translate(225.195312 0)"/>
    </g>
   </g>
   <g id="text_19">
    <!-- n = 51 -->
    <g style="fill: #262626" transform="translate(525.821283 1483.882031) scale(0.09 -0.09)">
     <use xlink:href="#ArialMT-6e"/>
     <use xlink:href="#ArialMT-20" transform="translate(55.615234 0)"/>
     <use xlink:href="#ArialMT-3d" transform="translate(83.398438 0)"/>
     <use xlink:href="#ArialMT-20" transform="translate(141.796875 0)"/>
     <use xlink:href="#ArialMT-35" transform="translate(169.580078 0)"/>
     <use xlink:href="#ArialMT-31" transform="translate(225.195312 0)"/>
    </g>
   </g>
   <g id="text_20">
    <!-- n = 25 -->
    <g style="fill: #262626" transform="translate(621.478426 1483.882031) scale(0.09 -0.09)">
     <use xlink:href="#ArialMT-6e"/>
     <use xlink:href="#ArialMT-20" transform="translate(55.615234 0)"/>
     <use xlink:href="#ArialMT-3d" transform="translate(83.398438 0)"/>
     <use xlink:href="#ArialMT-20" transform="translate(141.796875 0)"/>
     <use xlink:href="#ArialMT-32" transform="translate(169.580078 0)"/>
     <use xlink:href="#ArialMT-35" transform="translate(225.195312 0)"/>
    </g>
   </g>
   <g id="text_21">
    <!-- n = 67 -->
    <g style="fill: #262626" transform="translate(717.135569 1483.882031) scale(0.09 -0.09)">
     <use xlink:href="#ArialMT-6e"/>
     <use xlink:href="#ArialMT-20" transform="translate(55.615234 0)"/>
     <use xlink:href="#ArialMT-3d" transform="translate(83.398438 0)"/>
     <use xlink:href="#ArialMT-20" transform="translate(141.796875 0)"/>
     <use xlink:href="#ArialMT-36" transform="translate(169.580078 0)"/>
     <use xlink:href="#ArialMT-37" transform="translate(225.195312 0)"/>
    </g>
   </g>
   <g id="text_22">
    <!-- Durata spitalizării în funcție de cauza arsurii -->
    <g style="fill: #262626" transform="translate(315.148781 39.84) scale(0.132 -0.132)">
     <defs>
      <path id="ArialMT-44" d="M 494 0 
L 494 4581 
L 2072 4581 
Q 2606 4581 2888 4516 
Q 3281 4425 3559 4188 
Q 3922 3881 4101 3404 
Q 4281 2928 4281 2316 
Q 4281 1794 4159 1391 
Q 4038 988 3847 723 
Q 3656 459 3429 307 
Q 3203 156 2883 78 
Q 2563 0 2147 0 
L 494 0 
z
M 1100 541 
L 2078 541 
Q 2531 541 2789 625 
Q 3047 709 3200 863 
Q 3416 1078 3536 1442 
Q 3656 1806 3656 2325 
Q 3656 3044 3420 3430 
Q 3184 3816 2847 3947 
Q 2603 4041 2063 4041 
L 1100 4041 
L 1100 541 
z
" transform="scale(0.015625)"/>
      <path id="ArialMT-103" d="M 2588 409 
Q 2275 144 1986 34 
Q 1697 -75 1366 -75 
Q 819 -75 525 192 
Q 231 459 231 875 
Q 231 1119 342 1320 
Q 453 1522 633 1644 
Q 813 1766 1038 1828 
Q 1203 1872 1538 1913 
Q 2219 1994 2541 2106 
Q 2544 2222 2544 2253 
Q 2544 2597 2384 2738 
Q 2169 2928 1744 2928 
Q 1347 2928 1158 2789 
Q 969 2650 878 2297 
L 328 2372 
Q 403 2725 575 2942 
Q 747 3159 1072 3276 
Q 1397 3394 1825 3394 
Q 2250 3394 2515 3294 
Q 2781 3194 2906 3042 
Q 3031 2891 3081 2659 
Q 3109 2516 3109 2141 
L 3109 1391 
Q 3109 606 3145 398 
Q 3181 191 3288 0 
L 2700 0 
Q 2613 175 2588 409 
z
M 2541 1666 
Q 2234 1541 1622 1453 
Q 1275 1403 1131 1340 
Q 988 1278 909 1158 
Q 831 1038 831 891 
Q 831 666 1001 516 
Q 1172 366 1500 366 
Q 1825 366 2078 508 
Q 2331 650 2450 897 
Q 2541 1088 2541 1459 
L 2541 1666 
z
M 2374 4575 
L 2759 4575 
Q 2712 4184 2473 3975 
Q 2234 3766 1837 3766 
Q 1437 3766 1198 3973 
Q 959 4181 912 4575 
L 1296 4575 
Q 1340 4363 1469 4258 
Q 1599 4153 1818 4153 
Q 2071 4153 2201 4254 
Q 2331 4356 2374 4575 
z
" transform="scale(0.015625)"/>
      <path id="ArialMT-ee" d="M 619 0 
L 619 3319 
L 1181 3319 
L 1181 0 
L 619 0 
z
M 947 4263 
L 594 3731 
L -50 3731 
L 625 4606 
L 1225 4606 
L 1928 3731 
L 1291 3731 
L 947 4263 
z
" transform="scale(0.015625)"/>
      <path id="ArialMT-21b" d="M 1650 503 
L 1731 6 
Q 1494 -44 1306 -44 
Q 1000 -44 831 53 
Q 663 150 594 308 
Q 525 466 525 972 
L 525 2881 
L 113 2881 
L 113 3319 
L 525 3319 
L 525 4141 
L 1084 4478 
L 1084 3319 
L 1650 3319 
L 1650 2881 
L 1084 2881 
L 1084 941 
Q 1084 700 1114 631 
Q 1144 563 1211 522 
Q 1278 481 1403 481 
Q 1497 481 1650 503 
z
M 859 -953 
L 859 -378 
L 1438 -378 
L 1438 -953 
Q 1438 -1172 1323 -1364 
Q 1209 -1556 966 -1663 
L 828 -1447 
Q 1125 -1316 1147 -953 
L 859 -953 
z
" transform="scale(0.015625)"/>
     </defs>
     <use xlink:href="#ArialMT-44"/>
     <use xlink:href="#ArialMT-75" transform="translate(72.216797 0)"/>
     <use xlink:href="#ArialMT-72" transform="translate(127.832031 0)"/>
     <use xlink:href="#ArialMT-61" transform="translate(161.132812 0)"/>
     <use xlink:href="#ArialMT-74" transform="translate(216.748047 0)"/>
     <use xlink:href="#ArialMT-61" transform="translate(244.53125 0)"/>
     <use xlink:href="#ArialMT-20" transform="translate(300.146484 0)"/>
     <use xlink:href="#ArialMT-73" transform="translate(327.929688 0)"/>
     <use xlink:href="#ArialMT-70" transform="translate(377.929688 0)"/>
     <use xlink:href="#ArialMT-69" transform="translate(433.544922 0)"/>
     <use xlink:href="#ArialMT-74" transform="translate(455.761719 0)"/>
     <use xlink:href="#ArialMT-61" transform="translate(483.544922 0)"/>
     <use xlink:href="#ArialMT-6c" transform="translate(539.160156 0)"/>
     <use xlink:href="#ArialMT-69" transform="translate(561.376953 0)"/>
     <use xlink:href="#ArialMT-7a" transform="translate(583.59375 0)"/>
     <use xlink:href="#ArialMT-103" transform="translate(633.59375 0)"/>
     <use xlink:href="#ArialMT-72" transform="translate(689.208984 0)"/>
     <use xlink:href="#ArialMT-69" transform="translate(722.509766 0)"/>
     <use xlink:href="#ArialMT-69" transform="translate(744.726562 0)"/>
     <use xlink:href="#ArialMT-20" transform="translate(766.943359 0)"/>
     <use xlink:href="#ArialMT-ee" transform="translate(794.726562 0)"/>
     <use xlink:href="#ArialMT-6e" transform="translate(822.509766 0)"/>
     <use xlink:href="#ArialMT-20" transform="translate(878.125 0)"/>
     <use xlink:href="#ArialMT-66" transform="translate(905.908203 0)"/>
     <use xlink:href="#ArialMT-75" transform="translate(933.691406 0)"/>
     <use xlink:href="#ArialMT-6e" transform="translate(989.306641 0)"/>
     <use xlink:href="#ArialMT-63" transform="translate(1044.921875 0)"/>
     <use xlink:href="#ArialMT-21b" transform="translate(1094.921875 0)"/>
     <use xlink:href="#ArialMT-69" transform="translate(1122.705078 0)"/>
     <use xlink:href="#ArialMT-65" transform="translate(1144.921875 0)"/>
     <use xlink:href="#ArialMT-20" transform="translate(1200.537109 0)"/>
     <use xlink:href="#ArialMT-64" transform="translate(1228.320312 0)"/>
     <use xlink:href="#ArialMT-65" transform="translate(1283.935547 0)"/>
     <use xlink:href="#ArialMT-20" transform="translate(1339.550781 0)"/>
     <use xlink:href="#ArialMT-63" transform="translate(1367.333984 0)"/>
     <use xlink:href="#ArialMT-61" transform="translate(1417.333984 0)"/>
     <use xlink:href="#ArialMT-75" transform="translate(1472.949219 0)"/>
     <use xlink:href="#ArialMT-7a" transform="translate(1528.564453 0)"/>
     <use xlink:href="#ArialMT-61" transform="translate(1578.564453 0)"/>
     <use xlink:href="#ArialMT-20" transform="translate(1634.179688 0)"/>
     <use xlink:href="#ArialMT-61" transform="translate(1661.962891 0)"/>
     <use xlink:href="#ArialMT-72" transform="translate(1717.578125 0)"/>
     <use xlink:href="#ArialMT-73" transform="translate(1750.878906 0)"/>
     <use xlink:href="#ArialMT-75" transform="translate(1800.878906 0)"/>
     <use xlink:href="#ArialMT-72" transform="translate(1856.494141 0)"/>
     <use xlink:href="#ArialMT-69" transform="translate(1889.794922 0)"/>
     <use xlink:href="#ArialMT-69" transform="translate(1912.011719 0)"/>
    </g>
   </g>
  </g>
 </g>
 <defs>
  <clipPath id="p78fc7edc43">
   <rect x="108" y="51.84" width="669.6" height="285.12"/>
  </clipPath>
 </defs>
</svg>
