<?xml version="1.0" encoding="utf-8" standalone="no"?>
<!DOCTYPE svg PUBLIC "-//W3C//DTD SVG 1.1//EN"
  "http://www.w3.org/Graphics/SVG/1.1/DTD/svg11.dtd">
<svg xmlns:xlink="http://www.w3.org/1999/xlink" width="864pt" height="432pt" viewBox="0 0 864 432" xmlns="http://www.w3.org/2000/svg" version="1.1">
 <metadata>
  <rdf:RDF xmlns:dc="http://purl.org/dc/elements/1.1/" xmlns:cc="http://creativecommons.org/ns#" xmlns:rdf="http://www.w3.org/1999/02/22-rdf-syntax-ns#">
   <cc:Work>
    <dc:type rdf:resource="http://purl.org/dc/dcmitype/StillImage"/>
    <dc:date>2025-07-16T17:17:48.799960</dc:date>
    <dc:format>image/svg+xml</dc:format>
    <dc:creator>
     <cc:Agent>
      <dc:title>Matplotlib v3.10.3, https://matplotlib.org/</dc:title>
     </cc:Agent>
    </dc:creator>
   </cc:Work>
  </rdf:RDF>
 </metadata>
 <defs>
  <style type="text/css">*{stroke-linejoin: round; stroke-linecap: butt}</style>
 </defs>
 <g id="figure_1">
  <g id="patch_1">
   <path d="M 0 432 
L 864 432 
L 864 0 
L 0 0 
z
" style="fill: #ffffff"/>
  </g>
  <g id="axes_1">
   <g id="patch_2">
    <path d="M 54.99 385.38 
L 851.04 385.38 
L 851.04 27.65625 
L 54.99 27.65625 
z
" style="fill: #ffffff"/>
   </g>
   <g id="matplotlib.axis_1">
    <g id="xtick_1">
     <g id="text_1">
      <!-- flacara -->
      <g style="fill: #262626" transform="translate(95.343839 402.753594) scale(0.11 -0.11)">
       <defs>
        <path id="ArialMT-66" d="M 556 0 
L 556 2881 
L 59 2881 
L 59 3319 
L 556 3319 
L 556 3672 
Q 556 4006 616 4169 
Q 697 4388 901 4523 
Q 1106 4659 1475 4659 
Q 1713 4659 2000 4603 
L 1916 4113 
Q 1741 4144 1584 4144 
Q 1328 4144 1222 4034 
Q 1116 3925 1116 3625 
L 1116 3319 
L 1763 3319 
L 1763 2881 
L 1116 2881 
L 1116 0 
L 556 0 
z
" transform="scale(0.015625)"/>
        <path id="ArialMT-6c" d="M 409 0 
L 409 4581 
L 972 4581 
L 972 0 
L 409 0 
z
" transform="scale(0.015625)"/>
        <path id="ArialMT-61" d="M 2588 409 
Q 2275 144 1986 34 
Q 1697 -75 1366 -75 
Q 819 -75 525 192 
Q 231 459 231 875 
Q 231 1119 342 1320 
Q 453 1522 633 1644 
Q 813 1766 1038 1828 
Q 1203 1872 1538 1913 
Q 2219 1994 2541 2106 
Q 2544 2222 2544 2253 
Q 2544 2597 2384 2738 
Q 2169 2928 1744 2928 
Q 1347 2928 1158 2789 
Q 969 2650 878 2297 
L 328 2372 
Q 403 2725 575 2942 
Q 747 3159 1072 3276 
Q 1397 3394 1825 3394 
Q 2250 3394 2515 3294 
Q 2781 3194 2906 3042 
Q 3031 2891 3081 2659 
Q 3109 2516 3109 2141 
L 3109 1391 
Q 3109 606 3145 398 
Q 3181 191 3288 0 
L 2700 0 
Q 2613 175 2588 409 
z
M 2541 1666 
Q 2234 1541 1622 1453 
Q 1275 1403 1131 1340 
Q 988 1278 909 1158 
Q 831 1038 831 891 
Q 831 666 1001 516 
Q 1172 366 1500 366 
Q 1825 366 2078 508 
Q 2331 650 2450 897 
Q 2541 1088 2541 1459 
L 2541 1666 
z
" transform="scale(0.015625)"/>
        <path id="ArialMT-63" d="M 2588 1216 
L 3141 1144 
Q 3050 572 2676 248 
Q 2303 -75 1759 -75 
Q 1078 -75 664 370 
Q 250 816 250 1647 
Q 250 2184 428 2587 
Q 606 2991 970 3192 
Q 1334 3394 1763 3394 
Q 2303 3394 2647 3120 
Q 2991 2847 3088 2344 
L 2541 2259 
Q 2463 2594 2264 2762 
Q 2066 2931 1784 2931 
Q 1359 2931 1093 2626 
Q 828 2322 828 1663 
Q 828 994 1084 691 
Q 1341 388 1753 388 
Q 2084 388 2306 591 
Q 2528 794 2588 1216 
z
" transform="scale(0.015625)"/>
        <path id="ArialMT-72" d="M 416 0 
L 416 3319 
L 922 3319 
L 922 2816 
Q 1116 3169 1280 3281 
Q 1444 3394 1641 3394 
Q 1925 3394 2219 3213 
L 2025 2691 
Q 1819 2813 1613 2813 
Q 1428 2813 1281 2702 
Q 1134 2591 1072 2394 
Q 978 2094 978 1738 
L 978 0 
L 416 0 
z
" transform="scale(0.015625)"/>
       </defs>
       <use xlink:href="#ArialMT-66"/>
       <use xlink:href="#ArialMT-6c" transform="translate(27.783203 0)"/>
       <use xlink:href="#ArialMT-61" transform="translate(50 0)"/>
       <use xlink:href="#ArialMT-63" transform="translate(105.615234 0)"/>
       <use xlink:href="#ArialMT-61" transform="translate(155.615234 0)"/>
       <use xlink:href="#ArialMT-72" transform="translate(211.230469 0)"/>
       <use xlink:href="#ArialMT-61" transform="translate(244.53125 0)"/>
      </g>
     </g>
    </g>
    <g id="xtick_2">
     <g id="text_2">
      <!-- lichid -->
      <g style="fill: #262626" transform="translate(213.039018 402.753594) scale(0.11 -0.11)">
       <defs>
        <path id="ArialMT-69" d="M 425 3934 
L 425 4581 
L 988 4581 
L 988 3934 
L 425 3934 
z
M 425 0 
L 425 3319 
L 988 3319 
L 988 0 
L 425 0 
z
" transform="scale(0.015625)"/>
        <path id="ArialMT-68" d="M 422 0 
L 422 4581 
L 984 4581 
L 984 2938 
Q 1378 3394 1978 3394 
Q 2347 3394 2619 3248 
Q 2891 3103 3008 2847 
Q 3125 2591 3125 2103 
L 3125 0 
L 2563 0 
L 2563 2103 
Q 2563 2525 2380 2717 
Q 2197 2909 1863 2909 
Q 1613 2909 1392 2779 
Q 1172 2650 1078 2428 
Q 984 2206 984 1816 
L 984 0 
L 422 0 
z
" transform="scale(0.015625)"/>
        <path id="ArialMT-64" d="M 2575 0 
L 2575 419 
Q 2259 -75 1647 -75 
Q 1250 -75 917 144 
Q 584 363 401 755 
Q 219 1147 219 1656 
Q 219 2153 384 2558 
Q 550 2963 881 3178 
Q 1213 3394 1622 3394 
Q 1922 3394 2156 3267 
Q 2391 3141 2538 2938 
L 2538 4581 
L 3097 4581 
L 3097 0 
L 2575 0 
z
M 797 1656 
Q 797 1019 1065 703 
Q 1334 388 1700 388 
Q 2069 388 2326 689 
Q 2584 991 2584 1609 
Q 2584 2291 2321 2609 
Q 2059 2928 1675 2928 
Q 1300 2928 1048 2622 
Q 797 2316 797 1656 
z
" transform="scale(0.015625)"/>
       </defs>
       <use xlink:href="#ArialMT-6c"/>
       <use xlink:href="#ArialMT-69" transform="translate(22.216797 0)"/>
       <use xlink:href="#ArialMT-63" transform="translate(44.433594 0)"/>
       <use xlink:href="#ArialMT-68" transform="translate(94.433594 0)"/>
       <use xlink:href="#ArialMT-69" transform="translate(150.048828 0)"/>
       <use xlink:href="#ArialMT-64" transform="translate(172.265625 0)"/>
      </g>
     </g>
    </g>
    <g id="xtick_3">
     <g id="text_3">
      <!-- chimica -->
      <g style="fill: #262626" transform="translate(320.65115 402.753594) scale(0.11 -0.11)">
       <defs>
        <path id="ArialMT-6d" d="M 422 0 
L 422 3319 
L 925 3319 
L 925 2853 
Q 1081 3097 1340 3245 
Q 1600 3394 1931 3394 
Q 2300 3394 2536 3241 
Q 2772 3088 2869 2813 
Q 3263 3394 3894 3394 
Q 4388 3394 4653 3120 
Q 4919 2847 4919 2278 
L 4919 0 
L 4359 0 
L 4359 2091 
Q 4359 2428 4304 2576 
Q 4250 2725 4106 2815 
Q 3963 2906 3769 2906 
Q 3419 2906 3187 2673 
Q 2956 2441 2956 1928 
L 2956 0 
L 2394 0 
L 2394 2156 
Q 2394 2531 2256 2718 
Q 2119 2906 1806 2906 
Q 1569 2906 1367 2781 
Q 1166 2656 1075 2415 
Q 984 2175 984 1722 
L 984 0 
L 422 0 
z
" transform="scale(0.015625)"/>
       </defs>
       <use xlink:href="#ArialMT-63"/>
       <use xlink:href="#ArialMT-68" transform="translate(50 0)"/>
       <use xlink:href="#ArialMT-69" transform="translate(105.615234 0)"/>
       <use xlink:href="#ArialMT-6d" transform="translate(127.832031 0)"/>
       <use xlink:href="#ArialMT-69" transform="translate(211.132812 0)"/>
       <use xlink:href="#ArialMT-63" transform="translate(233.349609 0)"/>
       <use xlink:href="#ArialMT-61" transform="translate(283.349609 0)"/>
      </g>
     </g>
    </g>
    <g id="xtick_4">
     <g id="text_4">
      <!-- contact -->
      <g style="fill: #262626" transform="translate(435.283516 402.753594) scale(0.11 -0.11)">
       <defs>
        <path id="ArialMT-6f" d="M 213 1659 
Q 213 2581 725 3025 
Q 1153 3394 1769 3394 
Q 2453 3394 2887 2945 
Q 3322 2497 3322 1706 
Q 3322 1066 3130 698 
Q 2938 331 2570 128 
Q 2203 -75 1769 -75 
Q 1072 -75 642 372 
Q 213 819 213 1659 
z
M 791 1659 
Q 791 1022 1069 705 
Q 1347 388 1769 388 
Q 2188 388 2466 706 
Q 2744 1025 2744 1678 
Q 2744 2294 2464 2611 
Q 2184 2928 1769 2928 
Q 1347 2928 1069 2612 
Q 791 2297 791 1659 
z
" transform="scale(0.015625)"/>
        <path id="ArialMT-6e" d="M 422 0 
L 422 3319 
L 928 3319 
L 928 2847 
Q 1294 3394 1984 3394 
Q 2284 3394 2536 3286 
Q 2788 3178 2913 3003 
Q 3038 2828 3088 2588 
Q 3119 2431 3119 2041 
L 3119 0 
L 2556 0 
L 2556 2019 
Q 2556 2363 2490 2533 
Q 2425 2703 2258 2804 
Q 2091 2906 1866 2906 
Q 1506 2906 1245 2678 
Q 984 2450 984 1813 
L 984 0 
L 422 0 
z
" transform="scale(0.015625)"/>
        <path id="ArialMT-74" d="M 1650 503 
L 1731 6 
Q 1494 -44 1306 -44 
Q 1000 -44 831 53 
Q 663 150 594 308 
Q 525 466 525 972 
L 525 2881 
L 113 2881 
L 113 3319 
L 525 3319 
L 525 4141 
L 1084 4478 
L 1084 3319 
L 1650 3319 
L 1650 2881 
L 1084 2881 
L 1084 941 
Q 1084 700 1114 631 
Q 1144 563 1211 522 
Q 1278 481 1403 481 
Q 1497 481 1650 503 
z
" transform="scale(0.015625)"/>
       </defs>
       <use xlink:href="#ArialMT-63"/>
       <use xlink:href="#ArialMT-6f" transform="translate(50 0)"/>
       <use xlink:href="#ArialMT-6e" transform="translate(105.615234 0)"/>
       <use xlink:href="#ArialMT-74" transform="translate(161.230469 0)"/>
       <use xlink:href="#ArialMT-61" transform="translate(189.013672 0)"/>
       <use xlink:href="#ArialMT-63" transform="translate(244.628906 0)"/>
       <use xlink:href="#ArialMT-74" transform="translate(294.628906 0)"/>
      </g>
     </g>
    </g>
    <g id="xtick_5">
     <g id="text_5">
      <!-- electrocutie -->
      <g style="fill: #262626" transform="translate(538.612522 402.753594) scale(0.11 -0.11)">
       <defs>
        <path id="ArialMT-65" d="M 2694 1069 
L 3275 997 
Q 3138 488 2766 206 
Q 2394 -75 1816 -75 
Q 1088 -75 661 373 
Q 234 822 234 1631 
Q 234 2469 665 2931 
Q 1097 3394 1784 3394 
Q 2450 3394 2872 2941 
Q 3294 2488 3294 1666 
Q 3294 1616 3291 1516 
L 816 1516 
Q 847 969 1125 678 
Q 1403 388 1819 388 
Q 2128 388 2347 550 
Q 2566 713 2694 1069 
z
M 847 1978 
L 2700 1978 
Q 2663 2397 2488 2606 
Q 2219 2931 1791 2931 
Q 1403 2931 1139 2672 
Q 875 2413 847 1978 
z
" transform="scale(0.015625)"/>
        <path id="ArialMT-75" d="M 2597 0 
L 2597 488 
Q 2209 -75 1544 -75 
Q 1250 -75 995 37 
Q 741 150 617 320 
Q 494 491 444 738 
Q 409 903 409 1263 
L 409 3319 
L 972 3319 
L 972 1478 
Q 972 1038 1006 884 
Q 1059 663 1231 536 
Q 1403 409 1656 409 
Q 1909 409 2131 539 
Q 2353 669 2445 892 
Q 2538 1116 2538 1541 
L 2538 3319 
L 3100 3319 
L 3100 0 
L 2597 0 
z
" transform="scale(0.015625)"/>
       </defs>
       <use xlink:href="#ArialMT-65"/>
       <use xlink:href="#ArialMT-6c" transform="translate(55.615234 0)"/>
       <use xlink:href="#ArialMT-65" transform="translate(77.832031 0)"/>
       <use xlink:href="#ArialMT-63" transform="translate(133.447266 0)"/>
       <use xlink:href="#ArialMT-74" transform="translate(183.447266 0)"/>
       <use xlink:href="#ArialMT-72" transform="translate(211.230469 0)"/>
       <use xlink:href="#ArialMT-6f" transform="translate(244.53125 0)"/>
       <use xlink:href="#ArialMT-63" transform="translate(300.146484 0)"/>
       <use xlink:href="#ArialMT-75" transform="translate(350.146484 0)"/>
       <use xlink:href="#ArialMT-74" transform="translate(405.761719 0)"/>
       <use xlink:href="#ArialMT-69" transform="translate(433.544922 0)"/>
       <use xlink:href="#ArialMT-65" transform="translate(455.761719 0)"/>
      </g>
     </g>
    </g>
    <g id="xtick_6">
     <g id="text_6">
      <!-- solara -->
      <g style="fill: #262626" transform="translate(665.478951 402.753594) scale(0.11 -0.11)">
       <defs>
        <path id="ArialMT-73" d="M 197 991 
L 753 1078 
Q 800 744 1014 566 
Q 1228 388 1613 388 
Q 2000 388 2187 545 
Q 2375 703 2375 916 
Q 2375 1106 2209 1216 
Q 2094 1291 1634 1406 
Q 1016 1563 777 1677 
Q 538 1791 414 1992 
Q 291 2194 291 2438 
Q 291 2659 392 2848 
Q 494 3038 669 3163 
Q 800 3259 1026 3326 
Q 1253 3394 1513 3394 
Q 1903 3394 2198 3281 
Q 2494 3169 2634 2976 
Q 2775 2784 2828 2463 
L 2278 2388 
Q 2241 2644 2061 2787 
Q 1881 2931 1553 2931 
Q 1166 2931 1000 2803 
Q 834 2675 834 2503 
Q 834 2394 903 2306 
Q 972 2216 1119 2156 
Q 1203 2125 1616 2013 
Q 2213 1853 2448 1751 
Q 2684 1650 2818 1456 
Q 2953 1263 2953 975 
Q 2953 694 2789 445 
Q 2625 197 2315 61 
Q 2006 -75 1616 -75 
Q 969 -75 630 194 
Q 291 463 197 991 
z
" transform="scale(0.015625)"/>
       </defs>
       <use xlink:href="#ArialMT-73"/>
       <use xlink:href="#ArialMT-6f" transform="translate(50 0)"/>
       <use xlink:href="#ArialMT-6c" transform="translate(105.615234 0)"/>
       <use xlink:href="#ArialMT-61" transform="translate(127.832031 0)"/>
       <use xlink:href="#ArialMT-72" transform="translate(183.447266 0)"/>
       <use xlink:href="#ArialMT-61" transform="translate(216.748047 0)"/>
      </g>
     </g>
    </g>
    <g id="xtick_7">
     <g id="text_7">
      <!-- explozie -->
      <g style="fill: #262626" transform="translate(774.001161 402.753594) scale(0.11 -0.11)">
       <defs>
        <path id="ArialMT-78" d="M 47 0 
L 1259 1725 
L 138 3319 
L 841 3319 
L 1350 2541 
Q 1494 2319 1581 2169 
Q 1719 2375 1834 2534 
L 2394 3319 
L 3066 3319 
L 1919 1756 
L 3153 0 
L 2463 0 
L 1781 1031 
L 1600 1309 
L 728 0 
L 47 0 
z
" transform="scale(0.015625)"/>
        <path id="ArialMT-70" d="M 422 -1272 
L 422 3319 
L 934 3319 
L 934 2888 
Q 1116 3141 1344 3267 
Q 1572 3394 1897 3394 
Q 2322 3394 2647 3175 
Q 2972 2956 3137 2557 
Q 3303 2159 3303 1684 
Q 3303 1175 3120 767 
Q 2938 359 2589 142 
Q 2241 -75 1856 -75 
Q 1575 -75 1351 44 
Q 1128 163 984 344 
L 984 -1272 
L 422 -1272 
z
M 931 1641 
Q 931 1000 1190 694 
Q 1450 388 1819 388 
Q 2194 388 2461 705 
Q 2728 1022 2728 1688 
Q 2728 2322 2467 2637 
Q 2206 2953 1844 2953 
Q 1484 2953 1207 2617 
Q 931 2281 931 1641 
z
" transform="scale(0.015625)"/>
        <path id="ArialMT-7a" d="M 125 0 
L 125 456 
L 2238 2881 
Q 1878 2863 1603 2863 
L 250 2863 
L 250 3319 
L 2963 3319 
L 2963 2947 
L 1166 841 
L 819 456 
Q 1197 484 1528 484 
L 3063 484 
L 3063 0 
L 125 0 
z
" transform="scale(0.015625)"/>
       </defs>
       <use xlink:href="#ArialMT-65"/>
       <use xlink:href="#ArialMT-78" transform="translate(55.615234 0)"/>
       <use xlink:href="#ArialMT-70" transform="translate(105.615234 0)"/>
       <use xlink:href="#ArialMT-6c" transform="translate(161.230469 0)"/>
       <use xlink:href="#ArialMT-6f" transform="translate(183.447266 0)"/>
       <use xlink:href="#ArialMT-7a" transform="translate(239.0625 0)"/>
       <use xlink:href="#ArialMT-69" transform="translate(289.0625 0)"/>
       <use xlink:href="#ArialMT-65" transform="translate(311.279297 0)"/>
      </g>
     </g>
    </g>
    <g id="text_8">
     <!-- Cauza arsurii -->
     <g style="fill: #262626" transform="translate(423.561094 416.097656) scale(0.1 -0.1)">
      <defs>
       <path id="ArialMT-43" d="M 3763 1606 
L 4369 1453 
Q 4178 706 3683 314 
Q 3188 -78 2472 -78 
Q 1731 -78 1267 223 
Q 803 525 561 1097 
Q 319 1669 319 2325 
Q 319 3041 592 3573 
Q 866 4106 1370 4382 
Q 1875 4659 2481 4659 
Q 3169 4659 3637 4309 
Q 4106 3959 4291 3325 
L 3694 3184 
Q 3534 3684 3231 3912 
Q 2928 4141 2469 4141 
Q 1941 4141 1586 3887 
Q 1231 3634 1087 3207 
Q 944 2781 944 2328 
Q 944 1744 1114 1308 
Q 1284 872 1643 656 
Q 2003 441 2422 441 
Q 2931 441 3284 734 
Q 3638 1028 3763 1606 
z
" transform="scale(0.015625)"/>
       <path id="ArialMT-20" transform="scale(0.015625)"/>
      </defs>
      <use xlink:href="#ArialMT-43"/>
      <use xlink:href="#ArialMT-61" transform="translate(72.216797 0)"/>
      <use xlink:href="#ArialMT-75" transform="translate(127.832031 0)"/>
      <use xlink:href="#ArialMT-7a" transform="translate(183.447266 0)"/>
      <use xlink:href="#ArialMT-61" transform="translate(233.447266 0)"/>
      <use xlink:href="#ArialMT-20" transform="translate(289.0625 0)"/>
      <use xlink:href="#ArialMT-61" transform="translate(316.845703 0)"/>
      <use xlink:href="#ArialMT-72" transform="translate(372.460938 0)"/>
      <use xlink:href="#ArialMT-73" transform="translate(405.761719 0)"/>
      <use xlink:href="#ArialMT-75" transform="translate(455.761719 0)"/>
      <use xlink:href="#ArialMT-72" transform="translate(511.376953 0)"/>
      <use xlink:href="#ArialMT-69" transform="translate(544.677734 0)"/>
      <use xlink:href="#ArialMT-69" transform="translate(566.894531 0)"/>
     </g>
    </g>
   </g>
   <g id="matplotlib.axis_2">
    <g id="ytick_1">
     <g id="line2d_1">
      <path d="M 54.99 369.445182 
L 851.04 369.445182 
" clip-path="url(#p609f84e8c0)" style="fill: none; stroke: #cccccc; stroke-linecap: round"/>
     </g>
     <g id="text_9">
      <!-- 0 -->
      <g style="fill: #262626" transform="translate(39.372969 373.381979) scale(0.11 -0.11)">
       <defs>
        <path id="ArialMT-30" d="M 266 2259 
Q 266 3072 433 3567 
Q 600 4063 929 4331 
Q 1259 4600 1759 4600 
Q 2128 4600 2406 4451 
Q 2684 4303 2865 4023 
Q 3047 3744 3150 3342 
Q 3253 2941 3253 2259 
Q 3253 1453 3087 958 
Q 2922 463 2592 192 
Q 2263 -78 1759 -78 
Q 1097 -78 719 397 
Q 266 969 266 2259 
z
M 844 2259 
Q 844 1131 1108 757 
Q 1372 384 1759 384 
Q 2147 384 2411 759 
Q 2675 1134 2675 2259 
Q 2675 3391 2411 3762 
Q 2147 4134 1753 4134 
Q 1366 4134 1134 3806 
Q 844 3388 844 2259 
z
" transform="scale(0.015625)"/>
       </defs>
       <use xlink:href="#ArialMT-30"/>
      </g>
     </g>
    </g>
    <g id="ytick_2">
     <g id="line2d_2">
      <path d="M 54.99 329.608136 
L 851.04 329.608136 
" clip-path="url(#p609f84e8c0)" style="fill: none; stroke: #cccccc; stroke-linecap: round"/>
     </g>
     <g id="text_10">
      <!-- 25 -->
      <g style="fill: #262626" transform="translate(33.255938 333.544933) scale(0.11 -0.11)">
       <defs>
        <path id="ArialMT-32" d="M 3222 541 
L 3222 0 
L 194 0 
Q 188 203 259 391 
Q 375 700 629 1000 
Q 884 1300 1366 1694 
Q 2113 2306 2375 2664 
Q 2638 3022 2638 3341 
Q 2638 3675 2398 3904 
Q 2159 4134 1775 4134 
Q 1369 4134 1125 3890 
Q 881 3647 878 3216 
L 300 3275 
Q 359 3922 746 4261 
Q 1134 4600 1788 4600 
Q 2447 4600 2831 4234 
Q 3216 3869 3216 3328 
Q 3216 3053 3103 2787 
Q 2991 2522 2730 2228 
Q 2469 1934 1863 1422 
Q 1356 997 1212 845 
Q 1069 694 975 541 
L 3222 541 
z
" transform="scale(0.015625)"/>
        <path id="ArialMT-35" d="M 266 1200 
L 856 1250 
Q 922 819 1161 601 
Q 1400 384 1738 384 
Q 2144 384 2425 690 
Q 2706 997 2706 1503 
Q 2706 1984 2436 2262 
Q 2166 2541 1728 2541 
Q 1456 2541 1237 2417 
Q 1019 2294 894 2097 
L 366 2166 
L 809 4519 
L 3088 4519 
L 3088 3981 
L 1259 3981 
L 1013 2750 
Q 1425 3038 1878 3038 
Q 2478 3038 2890 2622 
Q 3303 2206 3303 1553 
Q 3303 931 2941 478 
Q 2500 -78 1738 -78 
Q 1113 -78 717 272 
Q 322 622 266 1200 
z
" transform="scale(0.015625)"/>
       </defs>
       <use xlink:href="#ArialMT-32"/>
       <use xlink:href="#ArialMT-35" transform="translate(55.615234 0)"/>
      </g>
     </g>
    </g>
    <g id="ytick_3">
     <g id="line2d_3">
      <path d="M 54.99 289.77109 
L 851.04 289.77109 
" clip-path="url(#p609f84e8c0)" style="fill: none; stroke: #cccccc; stroke-linecap: round"/>
     </g>
     <g id="text_11">
      <!-- 50 -->
      <g style="fill: #262626" transform="translate(33.255938 293.707887) scale(0.11 -0.11)">
       <use xlink:href="#ArialMT-35"/>
       <use xlink:href="#ArialMT-30" transform="translate(55.615234 0)"/>
      </g>
     </g>
    </g>
    <g id="ytick_4">
     <g id="line2d_4">
      <path d="M 54.99 249.934044 
L 851.04 249.934044 
" clip-path="url(#p609f84e8c0)" style="fill: none; stroke: #cccccc; stroke-linecap: round"/>
     </g>
     <g id="text_12">
      <!-- 75 -->
      <g style="fill: #262626" transform="translate(33.255938 253.870841) scale(0.11 -0.11)">
       <defs>
        <path id="ArialMT-37" d="M 303 3981 
L 303 4522 
L 3269 4522 
L 3269 4084 
Q 2831 3619 2401 2847 
Q 1972 2075 1738 1259 
Q 1569 684 1522 0 
L 944 0 
Q 953 541 1156 1306 
Q 1359 2072 1739 2783 
Q 2119 3494 2547 3981 
L 303 3981 
z
" transform="scale(0.015625)"/>
       </defs>
       <use xlink:href="#ArialMT-37"/>
       <use xlink:href="#ArialMT-35" transform="translate(55.615234 0)"/>
      </g>
     </g>
    </g>
    <g id="ytick_5">
     <g id="line2d_5">
      <path d="M 54.99 210.096998 
L 851.04 210.096998 
" clip-path="url(#p609f84e8c0)" style="fill: none; stroke: #cccccc; stroke-linecap: round"/>
     </g>
     <g id="text_13">
      <!-- 100 -->
      <g style="fill: #262626" transform="translate(27.138906 214.033795) scale(0.11 -0.11)">
       <defs>
        <path id="ArialMT-31" d="M 2384 0 
L 1822 0 
L 1822 3584 
Q 1619 3391 1289 3197 
Q 959 3003 697 2906 
L 697 3450 
Q 1169 3672 1522 3987 
Q 1875 4303 2022 4600 
L 2384 4600 
L 2384 0 
z
" transform="scale(0.015625)"/>
       </defs>
       <use xlink:href="#ArialMT-31"/>
       <use xlink:href="#ArialMT-30" transform="translate(55.615234 0)"/>
       <use xlink:href="#ArialMT-30" transform="translate(111.230469 0)"/>
      </g>
     </g>
    </g>
    <g id="ytick_6">
     <g id="line2d_6">
      <path d="M 54.99 170.259952 
L 851.04 170.259952 
" clip-path="url(#p609f84e8c0)" style="fill: none; stroke: #cccccc; stroke-linecap: round"/>
     </g>
     <g id="text_14">
      <!-- 125 -->
      <g style="fill: #262626" transform="translate(27.138906 174.196749) scale(0.11 -0.11)">
       <use xlink:href="#ArialMT-31"/>
       <use xlink:href="#ArialMT-32" transform="translate(55.615234 0)"/>
       <use xlink:href="#ArialMT-35" transform="translate(111.230469 0)"/>
      </g>
     </g>
    </g>
    <g id="ytick_7">
     <g id="line2d_7">
      <path d="M 54.99 130.422907 
L 851.04 130.422907 
" clip-path="url(#p609f84e8c0)" style="fill: none; stroke: #cccccc; stroke-linecap: round"/>
     </g>
     <g id="text_15">
      <!-- 150 -->
      <g style="fill: #262626" transform="translate(27.138906 134.359703) scale(0.11 -0.11)">
       <use xlink:href="#ArialMT-31"/>
       <use xlink:href="#ArialMT-35" transform="translate(55.615234 0)"/>
       <use xlink:href="#ArialMT-30" transform="translate(111.230469 0)"/>
      </g>
     </g>
    </g>
    <g id="ytick_8">
     <g id="line2d_8">
      <path d="M 54.99 90.585861 
L 851.04 90.585861 
" clip-path="url(#p609f84e8c0)" style="fill: none; stroke: #cccccc; stroke-linecap: round"/>
     </g>
     <g id="text_16">
      <!-- 175 -->
      <g style="fill: #262626" transform="translate(27.138906 94.522658) scale(0.11 -0.11)">
       <use xlink:href="#ArialMT-31"/>
       <use xlink:href="#ArialMT-37" transform="translate(55.615234 0)"/>
       <use xlink:href="#ArialMT-35" transform="translate(111.230469 0)"/>
      </g>
     </g>
    </g>
    <g id="ytick_9">
     <g id="line2d_9">
      <path d="M 54.99 50.748815 
L 851.04 50.748815 
" clip-path="url(#p609f84e8c0)" style="fill: none; stroke: #cccccc; stroke-linecap: round"/>
     </g>
     <g id="text_17">
      <!-- 200 -->
      <g style="fill: #262626" transform="translate(27.138906 54.685612) scale(0.11 -0.11)">
       <use xlink:href="#ArialMT-32"/>
       <use xlink:href="#ArialMT-30" transform="translate(55.615234 0)"/>
       <use xlink:href="#ArialMT-30" transform="translate(111.230469 0)"/>
      </g>
     </g>
    </g>
    <g id="text_18">
     <!-- Zile de spitalizare -->
     <g style="fill: #262626" transform="translate(21.151406 245.422031) rotate(-90) scale(0.1 -0.1)">
      <defs>
       <path id="ArialMT-5a" d="M 128 0 
L 128 563 
L 2475 3497 
Q 2725 3809 2950 4041 
L 394 4041 
L 394 4581 
L 3675 4581 
L 3675 4041 
L 1103 863 
L 825 541 
L 3750 541 
L 3750 0 
L 128 0 
z
" transform="scale(0.015625)"/>
      </defs>
      <use xlink:href="#ArialMT-5a"/>
      <use xlink:href="#ArialMT-69" transform="translate(61.083984 0)"/>
      <use xlink:href="#ArialMT-6c" transform="translate(83.300781 0)"/>
      <use xlink:href="#ArialMT-65" transform="translate(105.517578 0)"/>
      <use xlink:href="#ArialMT-20" transform="translate(161.132812 0)"/>
      <use xlink:href="#ArialMT-64" transform="translate(188.916016 0)"/>
      <use xlink:href="#ArialMT-65" transform="translate(244.53125 0)"/>
      <use xlink:href="#ArialMT-20" transform="translate(300.146484 0)"/>
      <use xlink:href="#ArialMT-73" transform="translate(327.929688 0)"/>
      <use xlink:href="#ArialMT-70" transform="translate(377.929688 0)"/>
      <use xlink:href="#ArialMT-69" transform="translate(433.544922 0)"/>
      <use xlink:href="#ArialMT-74" transform="translate(455.761719 0)"/>
      <use xlink:href="#ArialMT-61" transform="translate(483.544922 0)"/>
      <use xlink:href="#ArialMT-6c" transform="translate(539.160156 0)"/>
      <use xlink:href="#ArialMT-69" transform="translate(561.376953 0)"/>
      <use xlink:href="#ArialMT-7a" transform="translate(583.59375 0)"/>
      <use xlink:href="#ArialMT-61" transform="translate(633.59375 0)"/>
      <use xlink:href="#ArialMT-72" transform="translate(689.208984 0)"/>
      <use xlink:href="#ArialMT-65" transform="translate(722.509766 0)"/>
     </g>
    </g>
   </g>
   <g id="FillBetweenPolyCollection_1">
    <defs>
     <path id="m1f123aa8cd" d="M 113.686055 -47.150547 
L 110.015373 -47.150547 
L 107.203806 -50.584325 
L 101.974468 -54.018103 
L 94.097795 -57.451881 
L 84.576319 -60.885659 
L 75.51976 -64.319437 
L 69.094151 -67.753215 
L 66.362143 -71.186993 
L 66.991709 -74.620771 
L 69.884416 -78.054549 
L 73.972427 -81.488327 
L 78.580097 -84.922105 
L 83.340497 -88.355883 
L 87.972187 -91.789661 
L 92.165338 -95.223439 
L 95.638796 -98.657217 
L 98.276915 -102.090995 
L 100.198935 -105.524773 
L 101.677199 -108.958551 
L 102.964686 -112.392329 
L 104.178747 -115.826106 
L 105.312625 -119.259884 
L 106.312294 -122.693662 
L 107.132331 -126.12744 
L 107.754827 -129.561218 
L 108.193275 -132.994996 
L 108.487848 -136.428774 
L 108.690195 -139.862552 
L 108.846703 -143.29633 
L 108.990727 -146.730108 
L 109.143393 -150.163886 
L 109.315837 -153.597664 
L 109.508622 -157.031442 
L 109.710533 -160.46522 
L 109.902551 -163.898998 
L 110.068062 -167.332776 
L 110.201133 -170.766554 
L 110.305991 -174.200332 
L 110.392307 -177.63411 
L 110.473257 -181.067888 
L 110.563735 -184.501666 
L 110.672769 -187.935444 
L 110.794229 -191.369222 
L 110.909178 -194.803 
L 111.003957 -198.236777 
L 111.086035 -201.670555 
L 111.176854 -205.104333 
L 111.2883 -208.538111 
L 111.410064 -211.971889 
L 111.519289 -215.405667 
L 111.59751 -218.839445 
L 111.638329 -222.273223 
L 111.645838 -225.707001 
L 111.631433 -229.140779 
L 111.610499 -232.574557 
L 111.596048 -236.008335 
L 111.592337 -239.442113 
L 111.595719 -242.875891 
L 111.601984 -246.309669 
L 111.610591 -249.743447 
L 111.62192 -253.177225 
L 111.634833 -256.611003 
L 111.649777 -260.044781 
L 111.671429 -263.478559 
L 111.704234 -266.912337 
L 111.745495 -270.346115 
L 111.785356 -273.779893 
L 111.813664 -277.21367 
L 111.825598 -280.647448 
L 111.822006 -284.081226 
L 111.807531 -287.515004 
L 111.789169 -290.948782 
L 111.773767 -294.38256 
L 111.763944 -297.816338 
L 111.756445 -301.250116 
L 111.74605 -304.683894 
L 111.731229 -308.117672 
L 111.715263 -311.55145 
L 111.702554 -314.985228 
L 111.69526 -318.419006 
L 111.693448 -321.852784 
L 111.697219 -325.286562 
L 111.707897 -328.72034 
L 111.726963 -332.154118 
L 111.753634 -335.587896 
L 111.783592 -339.021674 
L 111.810669 -342.455452 
L 111.830259 -345.88923 
L 111.841169 -349.323008 
L 111.844441 -352.756786 
L 111.841008 -356.190564 
L 111.8309 -359.624341 
L 111.814987 -363.058119 
L 111.797456 -366.491897 
L 111.785573 -369.925675 
L 111.785394 -373.359453 
L 111.79702 -376.793231 
L 111.814532 -380.227009 
L 111.830728 -383.660787 
L 111.841664 -387.094565 
L 111.859764 -387.094565 
L 111.859764 -387.094565 
L 111.870701 -383.660787 
L 111.886896 -380.227009 
L 111.904409 -376.793231 
L 111.916035 -373.359453 
L 111.915855 -369.925675 
L 111.903972 -366.491897 
L 111.886442 -363.058119 
L 111.870529 -359.624341 
L 111.860421 -356.190564 
L 111.856988 -352.756786 
L 111.86026 -349.323008 
L 111.871169 -345.88923 
L 111.89076 -342.455452 
L 111.917836 -339.021674 
L 111.947794 -335.587896 
L 111.974466 -332.154118 
L 111.993531 -328.72034 
L 112.00421 -325.286562 
L 112.00798 -321.852784 
L 112.006168 -318.419006 
L 111.998875 -314.985228 
L 111.986165 -311.55145 
L 111.9702 -308.117672 
L 111.955379 -304.683894 
L 111.944983 -301.250116 
L 111.937484 -297.816338 
L 111.927662 -294.38256 
L 111.91226 -290.948782 
L 111.893897 -287.515004 
L 111.879422 -284.081226 
L 111.87583 -280.647448 
L 111.887764 -277.21367 
L 111.916073 -273.779893 
L 111.955933 -270.346115 
L 111.997194 -266.912337 
L 112.029999 -263.478559 
L 112.051652 -260.044781 
L 112.066595 -256.611003 
L 112.079509 -253.177225 
L 112.090838 -249.743447 
L 112.099445 -246.309669 
L 112.10571 -242.875891 
L 112.109091 -239.442113 
L 112.105381 -236.008335 
L 112.09093 -232.574557 
L 112.069995 -229.140779 
L 112.055591 -225.707001 
L 112.063099 -222.273223 
L 112.103919 -218.839445 
L 112.18214 -215.405667 
L 112.291365 -211.971889 
L 112.413128 -208.538111 
L 112.524575 -205.104333 
L 112.615393 -201.670555 
L 112.697472 -198.236777 
L 112.79225 -194.803 
L 112.9072 -191.369222 
L 113.028659 -187.935444 
L 113.137694 -184.501666 
L 113.228172 -181.067888 
L 113.309122 -177.63411 
L 113.395438 -174.200332 
L 113.500295 -170.766554 
L 113.633366 -167.332776 
L 113.798878 -163.898998 
L 113.990896 -160.46522 
L 114.192807 -157.031442 
L 114.385592 -153.597664 
L 114.558035 -150.163886 
L 114.710701 -146.730108 
L 114.854726 -143.29633 
L 115.011233 -139.862552 
L 115.21358 -136.428774 
L 115.508153 -132.994996 
L 115.946602 -129.561218 
L 116.569098 -126.12744 
L 117.389135 -122.693662 
L 118.388804 -119.259884 
L 119.522681 -115.826106 
L 120.736742 -112.392329 
L 122.02423 -108.958551 
L 123.502493 -105.524773 
L 125.424514 -102.090995 
L 128.062632 -98.657217 
L 131.53609 -95.223439 
L 135.729241 -91.789661 
L 140.360932 -88.355883 
L 145.121332 -84.922105 
L 149.729002 -81.488327 
L 153.817012 -78.054549 
L 156.709719 -74.620771 
L 157.339286 -71.186993 
L 154.607277 -67.753215 
L 148.181669 -64.319437 
L 139.125109 -60.885659 
L 129.603633 -57.451881 
L 121.726961 -54.018103 
L 116.497622 -50.584325 
L 113.686055 -47.150547 
z
" style="stroke: #595959; stroke-width: 1.25"/>
    </defs>
    <g clip-path="url(#p609f84e8c0)">
     <use xlink:href="#m1f123aa8cd" x="0" y="432" style="fill: #72b6a1; stroke: #595959; stroke-width: 1.25"/>
    </g>
   </g>
   <g id="FillBetweenPolyCollection_2">
    <defs>
     <path id="m3cfd982fe9" d="M 226.603286 -53.588384 
L 224.541 -53.588384 
L 222.678084 -55.717113 
L 218.869584 -57.845842 
L 212.636335 -59.974571 
L 204.470623 -62.1033 
L 195.897482 -64.232029 
L 188.654722 -66.360758 
L 183.703153 -68.489487 
L 181.008455 -70.618216 
L 180.083571 -72.746945 
L 180.519976 -74.875674 
L 182.060295 -77.004403 
L 184.430441 -79.133132 
L 187.288953 -81.261861 
L 190.351786 -83.39059 
L 193.508375 -85.519319 
L 196.79134 -87.648048 
L 200.2519 -89.776777 
L 203.857997 -91.905506 
L 207.455409 -94.034235 
L 210.790813 -96.162964 
L 213.593764 -98.291693 
L 215.675971 -100.420422 
L 217.005478 -102.549151 
L 217.74751 -104.67788 
L 218.224003 -106.806609 
L 218.745216 -108.935338 
L 219.431106 -111.064067 
L 220.207934 -113.192796 
L 220.952705 -115.321525 
L 221.591299 -117.450254 
L 222.091244 -119.578983 
L 222.451895 -121.707712 
L 222.727374 -123.836441 
L 223.009984 -125.96517 
L 223.3618 -128.093899 
L 223.774265 -130.222628 
L 224.192684 -132.351357 
L 224.557662 -134.480086 
L 224.823922 -136.608815 
L 224.968605 -138.737544 
L 225.002078 -140.866273 
L 224.967782 -142.995002 
L 224.922065 -145.123731 
L 224.908883 -147.25246 
L 224.946958 -149.381189 
L 225.029851 -151.509918 
L 225.132666 -153.638647 
L 225.224756 -155.767376 
L 225.285589 -157.896105 
L 225.314329 -160.024834 
L 225.32689 -162.153563 
L 225.343325 -164.282292 
L 225.373864 -166.411021 
L 225.41185 -168.53975 
L 225.438536 -170.668479 
L 225.437706 -172.797208 
L 225.408848 -174.925937 
L 225.367054 -177.054666 
L 225.331073 -179.183395 
L 225.312796 -181.312124 
L 225.316512 -183.440853 
L 225.342775 -185.569582 
L 225.388542 -187.698311 
L 225.44453 -189.82704 
L 225.497073 -191.955769 
L 225.535509 -194.084498 
L 225.55752 -196.213227 
L 225.567413 -198.341956 
L 225.57091 -200.470685 
L 225.571885 -202.599414 
L 225.5721 -204.728143 
L 225.572137 -206.856871 
L 225.572142 -208.9856 
L 225.572143 -211.114329 
L 225.572143 -213.243058 
L 225.572143 -215.371787 
L 225.572142 -217.500516 
L 225.572136 -219.629245 
L 225.572091 -221.757974 
L 225.571844 -223.886703 
L 225.570756 -226.015432 
L 225.567011 -228.144161 
L 225.556989 -230.27289 
L 225.53643 -232.401619 
L 225.504966 -234.530348 
L 225.471273 -236.659077 
L 225.451166 -238.787806 
L 225.455888 -240.916535 
L 225.481119 -243.045264 
L 225.509175 -245.173993 
L 225.521778 -247.302722 
L 225.511158 -249.431451 
L 225.483845 -251.56018 
L 225.457521 -253.688909 
L 225.45051 -255.817638 
L 225.468658 -257.946367 
L 225.50181 -260.075096 
L 225.533985 -262.203825 
L 225.555619 -264.332554 
L 225.588667 -264.332554 
L 225.588667 -264.332554 
L 225.610301 -262.203825 
L 225.642475 -260.075096 
L 225.675628 -257.946367 
L 225.693776 -255.817638 
L 225.686765 -253.688909 
L 225.660441 -251.56018 
L 225.633127 -249.431451 
L 225.622508 -247.302722 
L 225.63511 -245.173993 
L 225.663166 -243.045264 
L 225.688398 -240.916535 
L 225.69312 -238.787806 
L 225.673013 -236.659077 
L 225.63932 -234.530348 
L 225.607856 -232.401619 
L 225.587297 -230.27289 
L 225.577275 -228.144161 
L 225.57353 -226.015432 
L 225.572442 -223.886703 
L 225.572194 -221.757974 
L 225.57215 -219.629245 
L 225.572144 -217.500516 
L 225.572143 -215.371787 
L 225.572143 -213.243058 
L 225.572143 -211.114329 
L 225.572143 -208.9856 
L 225.572149 -206.856871 
L 225.572186 -204.728143 
L 225.572401 -202.599414 
L 225.573376 -200.470685 
L 225.576873 -198.341956 
L 225.586766 -196.213227 
L 225.608777 -194.084498 
L 225.647213 -191.955769 
L 225.699756 -189.82704 
L 225.755744 -187.698311 
L 225.80151 -185.569582 
L 225.827773 -183.440853 
L 225.831489 -181.312124 
L 225.813212 -179.183395 
L 225.777232 -177.054666 
L 225.735437 -174.925937 
L 225.70658 -172.797208 
L 225.70575 -170.668479 
L 225.732436 -168.53975 
L 225.770421 -166.411021 
L 225.800961 -164.282292 
L 225.817396 -162.153563 
L 225.829957 -160.024834 
L 225.858696 -157.896105 
L 225.91953 -155.767376 
L 226.01162 -153.638647 
L 226.114434 -151.509918 
L 226.197327 -149.381189 
L 226.235403 -147.25246 
L 226.222221 -145.123731 
L 226.176504 -142.995002 
L 226.142208 -140.866273 
L 226.175681 -138.737544 
L 226.320364 -136.608815 
L 226.586624 -134.480086 
L 226.951601 -132.351357 
L 227.37002 -130.222628 
L 227.782485 -128.093899 
L 228.134301 -125.96517 
L 228.416911 -123.836441 
L 228.69239 -121.707712 
L 229.053042 -119.578983 
L 229.552986 -117.450254 
L 230.191581 -115.321525 
L 230.936351 -113.192796 
L 231.71318 -111.064067 
L 232.39907 -108.935338 
L 232.920283 -106.806609 
L 233.396776 -104.67788 
L 234.138808 -102.549151 
L 235.468315 -100.420422 
L 237.550521 -98.291693 
L 240.353472 -96.162964 
L 243.688877 -94.034235 
L 247.286289 -91.905506 
L 250.892386 -89.776777 
L 254.352945 -87.648048 
L 257.635911 -85.519319 
L 260.7925 -83.39059 
L 263.855333 -81.261861 
L 266.713844 -79.133132 
L 269.083991 -77.004403 
L 270.62431 -74.875674 
L 271.060714 -72.746945 
L 270.135831 -70.618216 
L 267.441133 -68.489487 
L 262.489564 -66.360758 
L 255.246803 -64.232029 
L 246.673663 -62.1033 
L 238.507951 -59.974571 
L 232.274702 -57.845842 
L 228.466202 -55.717113 
L 226.603286 -53.588384 
z
" style="stroke: #595959; stroke-width: 1.25"/>
    </defs>
    <g clip-path="url(#p609f84e8c0)">
     <use xlink:href="#m3cfd982fe9" x="0" y="432" style="fill: #e99675; stroke: #595959; stroke-width: 1.25"/>
    </g>
   </g>
   <g id="FillBetweenPolyCollection_3">
    <defs>
     <path id="mba2423409b" d="M 341.184349 -47.195539 
L 337.402794 -47.195539 
L 336.358872 -48.696915 
L 334.891341 -50.198291 
L 332.909534 -51.699666 
L 330.340602 -53.201042 
L 327.147615 -54.702418 
L 323.347933 -56.203794 
L 319.027958 -57.70517 
L 314.350054 -59.206546 
L 309.54808 -60.707922 
L 304.909892 -62.209298 
L 300.747755 -63.710674 
L 297.360519 -65.21205 
L 294.993736 -66.713426 
L 293.805 -68.214801 
L 293.841279 -69.716177 
L 295.032949 -71.217553 
L 297.205977 -72.718929 
L 300.110095 -74.220305 
L 303.457586 -75.721681 
L 306.965251 -77.223057 
L 310.391756 -78.724433 
L 313.563827 -80.225809 
L 316.387475 -81.727185 
L 318.84386 -83.228561 
L 320.972649 -84.729936 
L 322.848091 -86.231312 
L 324.553887 -87.732688 
L 326.162257 -89.234064 
L 327.720715 -90.73544 
L 329.247632 -92.236816 
L 330.735443 -93.738192 
L 332.158852 -95.239568 
L 333.48491 -96.740944 
L 334.682255 -98.24232 
L 335.727732 -99.743696 
L 336.609759 -101.245071 
L 337.328677 -102.746447 
L 337.894937 -104.247823 
L 338.32609 -105.749199 
L 338.643525 -107.250575 
L 338.869548 -108.751951 
L 339.025196 -110.253327 
L 339.128848 -111.754703 
L 339.195583 -113.256079 
L 339.237111 -114.757455 
L 339.262079 -116.258831 
L 339.276577 -117.760206 
L 339.284703 -119.261582 
L 339.289099 -120.762958 
L 339.291392 -122.264334 
L 339.292546 -123.76571 
L 339.293106 -125.267086 
L 339.293367 -126.768462 
L 339.293485 -128.269838 
L 339.293536 -129.771214 
L 339.293558 -131.27259 
L 339.293566 -132.773966 
L 339.293569 -134.275341 
L 339.293571 -135.776717 
L 339.293571 -137.278093 
L 339.293571 -138.779469 
L 339.29357 -140.280845 
L 339.293568 -141.782221 
L 339.293562 -143.283597 
L 339.293547 -144.784973 
L 339.293512 -146.286349 
L 339.293432 -147.787725 
L 339.293258 -149.2891 
L 339.292891 -150.790476 
L 339.292151 -152.291852 
L 339.290716 -153.793228 
L 339.288047 -155.294604 
L 339.283283 -156.79598 
L 339.275129 -158.297356 
L 339.261753 -159.798732 
L 339.240733 -161.300108 
L 339.209118 -162.801484 
L 339.163649 -164.30286 
L 339.101194 -165.804235 
L 339.019399 -167.305611 
L 338.917478 -168.806987 
L 338.797016 -170.308363 
L 338.662555 -171.809739 
L 338.521753 -173.311115 
L 338.384934 -174.812491 
L 338.263975 -176.313867 
L 338.170662 -177.815243 
L 338.114818 -179.316619 
L 338.102597 -180.817995 
L 338.135373 -182.31937 
L 338.209483 -183.820746 
L 338.316903 -185.322122 
L 338.446674 -186.823498 
L 338.586741 -188.324874 
L 338.725764 -189.82625 
L 338.854548 -191.327626 
L 338.966852 -192.829002 
L 339.059546 -194.330378 
L 339.132227 -195.831754 
L 339.454916 -195.831754 
L 339.454916 -195.831754 
L 339.527597 -194.330378 
L 339.620291 -192.829002 
L 339.732594 -191.327626 
L 339.861378 -189.82625 
L 340.000402 -188.324874 
L 340.140468 -186.823498 
L 340.27024 -185.322122 
L 340.377659 -183.820746 
L 340.45177 -182.31937 
L 340.484546 -180.817995 
L 340.472325 -179.316619 
L 340.416481 -177.815243 
L 340.323168 -176.313867 
L 340.202209 -174.812491 
L 340.06539 -173.311115 
L 339.924588 -171.809739 
L 339.790127 -170.308363 
L 339.669664 -168.806987 
L 339.567744 -167.305611 
L 339.485949 -165.804235 
L 339.423494 -164.30286 
L 339.378025 -162.801484 
L 339.34641 -161.300108 
L 339.32539 -159.798732 
L 339.312014 -158.297356 
L 339.30386 -156.79598 
L 339.299096 -155.294604 
L 339.296427 -153.793228 
L 339.294992 -152.291852 
L 339.294251 -150.790476 
L 339.293885 -149.2891 
L 339.29371 -147.787725 
L 339.293631 -146.286349 
L 339.293596 -144.784973 
L 339.293581 -143.283597 
L 339.293575 -141.782221 
L 339.293573 -140.280845 
L 339.293572 -138.779469 
L 339.293572 -137.278093 
L 339.293572 -135.776717 
L 339.293573 -134.275341 
L 339.293577 -132.773966 
L 339.293585 -131.27259 
L 339.293607 -129.771214 
L 339.293658 -128.269838 
L 339.293775 -126.768462 
L 339.294037 -125.267086 
L 339.294597 -123.76571 
L 339.295751 -122.264334 
L 339.298044 -120.762958 
L 339.30244 -119.261582 
L 339.310566 -117.760206 
L 339.325064 -116.258831 
L 339.350031 -114.757455 
L 339.39156 -113.256079 
L 339.458295 -111.754703 
L 339.561947 -110.253327 
L 339.717595 -108.751951 
L 339.943618 -107.250575 
L 340.261053 -105.749199 
L 340.692206 -104.247823 
L 341.258465 -102.746447 
L 341.977384 -101.245071 
L 342.859411 -99.743696 
L 343.904888 -98.24232 
L 345.102233 -96.740944 
L 346.428291 -95.239568 
L 347.8517 -93.738192 
L 349.339511 -92.236816 
L 350.866428 -90.73544 
L 352.424885 -89.234064 
L 354.033256 -87.732688 
L 355.739052 -86.231312 
L 357.614494 -84.729936 
L 359.743283 -83.228561 
L 362.199668 -81.727185 
L 365.023316 -80.225809 
L 368.195387 -78.724433 
L 371.621892 -77.223057 
L 375.129557 -75.721681 
L 378.477048 -74.220305 
L 381.381166 -72.718929 
L 383.554194 -71.217553 
L 384.745864 -69.716177 
L 384.782143 -68.214801 
L 383.593406 -66.713426 
L 381.226624 -65.21205 
L 377.839388 -63.710674 
L 373.677251 -62.209298 
L 369.039063 -60.707922 
L 364.237089 -59.206546 
L 359.559184 -57.70517 
L 355.23921 -56.203794 
L 351.439528 -54.702418 
L 348.246541 -53.201042 
L 345.677609 -51.699666 
L 343.695802 -50.198291 
L 342.22827 -48.696915 
L 341.184349 -47.195539 
z
" style="stroke: #595959; stroke-width: 1.25"/>
    </defs>
    <g clip-path="url(#p609f84e8c0)">
     <use xlink:href="#mba2423409b" x="0" y="432" style="fill: #95a3c3; stroke: #595959; stroke-width: 1.25"/>
    </g>
   </g>
   <g id="FillBetweenPolyCollection_4">
    <defs>
     <path id="m8d6945cad7" d="M 454.594879 -48.067043 
L 451.435121 -48.067043 
L 450.478198 -49.583004 
L 449.098608 -51.098965 
L 447.198699 -52.614927 
L 444.700652 -54.130888 
L 441.567009 -55.646849 
L 437.820187 -57.162811 
L 433.555864 -58.678772 
L 428.945375 -60.194733 
L 424.224304 -61.710695 
L 419.667733 -63.226656 
L 415.55627 -64.742617 
L 412.139717 -66.258579 
L 409.606014 -67.77454 
L 408.061636 -69.290501 
L 407.526429 -70.806463 
L 407.942033 -72.322424 
L 409.190018 -73.838385 
L 411.114321 -75.354347 
L 413.542918 -76.870308 
L 416.305257 -78.386269 
L 419.244133 -79.90223 
L 422.222463 -81.418192 
L 425.126463 -82.934153 
L 427.866828 -84.450114 
L 430.379012 -85.966076 
L 432.622962 -87.482037 
L 434.582009 -88.997998 
L 436.260402 -90.51396 
L 437.679123 -92.029921 
L 438.870153 -93.545882 
L 439.869926 -95.061844 
L 440.713201 -96.577805 
L 441.42861 -98.093766 
L 442.036824 -99.609728 
L 442.551547 -101.125689 
L 442.982741 -102.64165 
L 443.34081 -104.157612 
L 443.64024 -105.673573 
L 443.901371 -107.189534 
L 444.149643 -108.705496 
L 444.412447 -110.221457 
L 444.714477 -111.737418 
L 445.072936 -113.253379 
L 445.494014 -114.769341 
L 445.971689 -116.285302 
L 446.489227 -117.801263 
L 447.022982 -119.317225 
L 447.547431 -120.833186 
L 448.040093 -122.349147 
L 448.485074 -123.865109 
L 448.874546 -125.38107 
L 449.208127 -126.897031 
L 449.490821 -128.412993 
L 449.73047 -129.928954 
L 449.935637 -131.444915 
L 450.114437 -132.960877 
L 450.274323 -134.476838 
L 450.422439 -135.992799 
L 450.565958 -137.508761 
L 450.711985 -139.024722 
L 450.866865 -140.540683 
L 451.035111 -142.056645 
L 451.21835 -143.572606 
L 451.414691 -145.088567 
L 451.618787 -146.604528 
L 451.822587 -148.12049 
L 452.0166 -149.636451 
L 452.191341 -151.152412 
L 452.338674 -152.668374 
L 452.452826 -154.184335 
L 452.530972 -155.700296 
L 452.573385 -157.216258 
L 452.583202 -158.732219 
L 452.565883 -160.24818 
L 452.52845 -161.764142 
L 452.478612 -163.280103 
L 452.423882 -164.796064 
L 452.370814 -166.312026 
L 452.324456 -167.827987 
L 452.288093 -169.343948 
L 452.263292 -170.85991 
L 452.250205 -172.375871 
L 452.248051 -173.891832 
L 452.255662 -175.407794 
L 452.271968 -176.923755 
L 452.296313 -178.439716 
L 452.32853 -179.955677 
L 452.368759 -181.471639 
L 452.417083 -182.9876 
L 452.473094 -184.503561 
L 452.535563 -186.019523 
L 452.602333 -187.535484 
L 452.670498 -189.051445 
L 452.736804 -190.567407 
L 452.798179 -192.083368 
L 452.852202 -193.599329 
L 452.897414 -195.115291 
L 452.933394 -196.631252 
L 452.960631 -198.147213 
L 453.069369 -198.147213 
L 453.069369 -198.147213 
L 453.096606 -196.631252 
L 453.132586 -195.115291 
L 453.177798 -193.599329 
L 453.231821 -192.083368 
L 453.293196 -190.567407 
L 453.359502 -189.051445 
L 453.427667 -187.535484 
L 453.494437 -186.019523 
L 453.556906 -184.503561 
L 453.612917 -182.9876 
L 453.661241 -181.471639 
L 453.70147 -179.955677 
L 453.733687 -178.439716 
L 453.758032 -176.923755 
L 453.774338 -175.407794 
L 453.781949 -173.891832 
L 453.779795 -172.375871 
L 453.766708 -170.85991 
L 453.741907 -169.343948 
L 453.705544 -167.827987 
L 453.659186 -166.312026 
L 453.606118 -164.796064 
L 453.551388 -163.280103 
L 453.50155 -161.764142 
L 453.464117 -160.24818 
L 453.446798 -158.732219 
L 453.456615 -157.216258 
L 453.499028 -155.700296 
L 453.577174 -154.184335 
L 453.691326 -152.668374 
L 453.838659 -151.152412 
L 454.0134 -149.636451 
L 454.207413 -148.12049 
L 454.411213 -146.604528 
L 454.615309 -145.088567 
L 454.81165 -143.572606 
L 454.994889 -142.056645 
L 455.163135 -140.540683 
L 455.318015 -139.024722 
L 455.464042 -137.508761 
L 455.607561 -135.992799 
L 455.755677 -134.476838 
L 455.915563 -132.960877 
L 456.094363 -131.444915 
L 456.29953 -129.928954 
L 456.539179 -128.412993 
L 456.821873 -126.897031 
L 457.155454 -125.38107 
L 457.544926 -123.865109 
L 457.989907 -122.349147 
L 458.482569 -120.833186 
L 459.007018 -119.317225 
L 459.540773 -117.801263 
L 460.058311 -116.285302 
L 460.535986 -114.769341 
L 460.957064 -113.253379 
L 461.315523 -111.737418 
L 461.617553 -110.221457 
L 461.880357 -108.705496 
L 462.128629 -107.189534 
L 462.38976 -105.673573 
L 462.68919 -104.157612 
L 463.047259 -102.64165 
L 463.478453 -101.125689 
L 463.993176 -99.609728 
L 464.60139 -98.093766 
L 465.316799 -96.577805 
L 466.160074 -95.061844 
L 467.159847 -93.545882 
L 468.350877 -92.029921 
L 469.769598 -90.51396 
L 471.447991 -88.997998 
L 473.407038 -87.482037 
L 475.650988 -85.966076 
L 478.163172 -84.450114 
L 480.903537 -82.934153 
L 483.807537 -81.418192 
L 486.785867 -79.90223 
L 489.724743 -78.386269 
L 492.487082 -76.870308 
L 494.915679 -75.354347 
L 496.839982 -73.838385 
L 498.087967 -72.322424 
L 498.503571 -70.806463 
L 497.968364 -69.290501 
L 496.423986 -67.77454 
L 493.890283 -66.258579 
L 490.47373 -64.742617 
L 486.362267 -63.226656 
L 481.805696 -61.710695 
L 477.084625 -60.194733 
L 472.474136 -58.678772 
L 468.209813 -57.162811 
L 464.462991 -55.646849 
L 461.329348 -54.130888 
L 458.831301 -52.614927 
L 456.931392 -51.098965 
L 455.551802 -49.583004 
L 454.594879 -48.067043 
z
" style="stroke: #595959; stroke-width: 1.25"/>
    </defs>
    <g clip-path="url(#p609f84e8c0)">
     <use xlink:href="#m8d6945cad7" x="0" y="432" style="fill: #db96c0; stroke: #595959; stroke-width: 1.25"/>
    </g>
   </g>
   <g id="FillBetweenPolyCollection_5">
    <defs>
     <path id="m967eded837" d="M 569.165745 -45.135993 
L 564.307112 -45.135993 
L 563.113064 -46.727264 
L 561.496863 -48.318534 
L 559.388919 -49.909804 
L 556.741745 -51.501074 
L 553.544067 -53.092344 
L 549.833475 -54.683615 
L 545.704667 -56.274885 
L 541.310517 -57.866155 
L 536.854234 -59.457425 
L 532.572487 -61.048695 
L 528.711379 -62.639966 
L 525.498871 -64.231236 
L 523.118305 -65.822506 
L 521.687635 -67.413776 
L 521.247857 -69.005047 
L 521.762245 -70.596317 
L 523.125826 -72.187587 
L 525.182687 -73.778857 
L 527.747577 -75.370127 
L 530.62804 -76.961398 
L 533.64388 -78.552668 
L 536.641787 -80.143938 
L 539.504148 -81.735208 
L 542.15211 -83.326478 
L 544.543692 -84.917749 
L 546.668217 -86.509019 
L 548.538484 -88.100289 
L 550.182112 -89.691559 
L 551.633324 -91.28283 
L 552.926204 -92.8741 
L 554.090038 -94.46537 
L 555.146977 -96.05664 
L 556.111785 -97.64791 
L 556.99314 -99.239181 
L 557.795758 -100.830451 
L 558.522662 -102.421721 
L 559.177056 -104.012991 
L 559.76354 -105.604261 
L 560.288605 -107.195532 
L 560.760502 -108.786802 
L 561.188644 -110.378072 
L 561.582677 -111.969342 
L 561.951335 -113.560613 
L 562.301217 -115.151883 
L 562.635669 -116.743153 
L 562.954019 -118.334423 
L 563.251441 -119.925693 
L 563.519652 -121.516964 
L 563.748496 -123.108234 
L 563.928233 -124.699504 
L 564.052146 -126.290774 
L 564.118896 -127.882044 
L 564.134044 -129.473315 
L 564.110309 -131.064585 
L 564.066361 -132.655855 
L 564.024321 -134.247125 
L 564.00642 -135.838396 
L 564.031518 -137.429666 
L 564.11218 -139.020936 
L 564.252929 -140.612206 
L 564.449955 -142.203476 
L 564.692283 -143.794747 
L 564.964029 -145.386017 
L 565.247216 -146.977287 
L 565.52453 -148.568557 
L 565.781528 -150.159827 
L 566.007975 -151.751098 
L 566.198242 -153.342368 
L 566.350906 -154.933638 
L 566.467783 -156.524908 
L 566.552735 -158.116179 
L 566.610478 -159.707449 
L 566.645605 -161.298719 
L 566.66192 -162.889989 
L 566.662095 -164.481259 
L 566.647644 -166.07253 
L 566.619142 -167.6638 
L 566.576648 -169.25507 
L 566.520239 -170.84634 
L 566.450586 -172.43761 
L 566.369469 -174.028881 
L 566.280131 -175.620151 
L 566.18737 -177.211421 
L 566.097312 -178.802691 
L 566.016851 -180.393962 
L 565.952837 -181.985232 
L 565.911134 -183.576502 
L 565.895745 -185.167772 
L 565.908183 -186.759042 
L 565.947226 -188.350313 
L 566.009118 -189.941583 
L 566.088161 -191.532853 
L 566.177584 -193.124123 
L 566.270488 -194.715393 
L 566.360702 -196.306664 
L 566.443396 -197.897934 
L 566.515393 -199.489204 
L 566.575174 -201.080474 
L 566.622649 -202.671745 
L 566.850208 -202.671745 
L 566.850208 -202.671745 
L 566.897683 -201.080474 
L 566.957465 -199.489204 
L 567.029461 -197.897934 
L 567.112155 -196.306664 
L 567.202369 -194.715393 
L 567.295273 -193.124123 
L 567.384696 -191.532853 
L 567.46374 -189.941583 
L 567.525631 -188.350313 
L 567.564674 -186.759042 
L 567.577112 -185.167772 
L 567.561723 -183.576502 
L 567.52002 -181.985232 
L 567.456006 -180.393962 
L 567.375545 -178.802691 
L 567.285487 -177.211421 
L 567.192726 -175.620151 
L 567.103388 -174.028881 
L 567.022271 -172.43761 
L 566.952618 -170.84634 
L 566.896209 -169.25507 
L 566.853715 -167.6638 
L 566.825213 -166.07253 
L 566.810762 -164.481259 
L 566.810937 -162.889989 
L 566.827252 -161.298719 
L 566.862379 -159.707449 
L 566.920122 -158.116179 
L 567.005074 -156.524908 
L 567.121951 -154.933638 
L 567.274615 -153.342368 
L 567.464882 -151.751098 
L 567.691329 -150.159827 
L 567.948327 -148.568557 
L 568.225641 -146.977287 
L 568.508828 -145.386017 
L 568.780574 -143.794747 
L 569.022902 -142.203476 
L 569.219928 -140.612206 
L 569.360677 -139.020936 
L 569.44134 -137.429666 
L 569.466437 -135.838396 
L 569.448536 -134.247125 
L 569.406496 -132.655855 
L 569.362548 -131.064585 
L 569.338813 -129.473315 
L 569.353961 -127.882044 
L 569.420711 -126.290774 
L 569.544624 -124.699504 
L 569.724361 -123.108234 
L 569.953205 -121.516964 
L 570.221416 -119.925693 
L 570.518838 -118.334423 
L 570.837188 -116.743153 
L 571.17164 -115.151883 
L 571.521522 -113.560613 
L 571.890181 -111.969342 
L 572.284214 -110.378072 
L 572.712355 -108.786802 
L 573.184252 -107.195532 
L 573.709317 -105.604261 
L 574.295801 -104.012991 
L 574.950195 -102.421721 
L 575.677099 -100.830451 
L 576.479717 -99.239181 
L 577.361072 -97.64791 
L 578.325881 -96.05664 
L 579.382819 -94.46537 
L 580.546653 -92.8741 
L 581.839533 -91.28283 
L 583.290745 -89.691559 
L 584.934373 -88.100289 
L 586.804641 -86.509019 
L 588.929165 -84.917749 
L 591.320747 -83.326478 
L 593.968709 -81.735208 
L 596.831071 -80.143938 
L 599.828978 -78.552668 
L 602.844818 -76.961398 
L 605.72528 -75.370127 
L 608.29017 -73.778857 
L 610.347031 -72.187587 
L 611.710612 -70.596317 
L 612.225 -69.005047 
L 611.785222 -67.413776 
L 610.354552 -65.822506 
L 607.973986 -64.231236 
L 604.761478 -62.639966 
L 600.90037 -61.048695 
L 596.618624 -59.457425 
L 592.16234 -57.866155 
L 587.768191 -56.274885 
L 583.639382 -54.683615 
L 579.92879 -53.092344 
L 576.731112 -51.501074 
L 574.083939 -49.909804 
L 571.975994 -48.318534 
L 570.359794 -46.727264 
L 569.165745 -45.135993 
z
" style="stroke: #595959; stroke-width: 1.25"/>
    </defs>
    <g clip-path="url(#p609f84e8c0)">
     <use xlink:href="#m967eded837" x="0" y="432" style="fill: #a2c865; stroke: #595959; stroke-width: 1.25"/>
    </g>
   </g>
   <g id="FillBetweenPolyCollection_6">
    <defs>
     <path id="me96dfbdede" d="M 682.477812 -60.754314 
L 678.437902 -60.754314 
L 677.871345 -60.951646 
L 677.183668 -61.148978 
L 676.359815 -61.346309 
L 675.385596 -61.543641 
L 674.248458 -61.740972 
L 672.938305 -61.938304 
L 671.448358 -62.135635 
L 669.775979 -62.332967 
L 667.923437 -62.530299 
L 665.898541 -62.72763 
L 663.715104 -62.924962 
L 661.393181 -63.122293 
L 658.959047 -63.319625 
L 656.444877 -63.516956 
L 653.888119 -63.714288 
L 651.330551 -63.91162 
L 648.817049 -64.108951 
L 646.394102 -64.306283 
L 644.108137 -64.503614 
L 642.003732 -64.700946 
L 640.121829 -64.898278 
L 638.498041 -65.095609 
L 637.161183 -65.292941 
L 636.132128 -65.490272 
L 635.42307 -65.687604 
L 635.037269 -65.884935 
L 634.969286 -66.082267 
L 635.205696 -66.279599 
L 635.726214 -66.47693 
L 636.505135 -66.674262 
L 637.512956 -66.871593 
L 638.718041 -67.068925 
L 640.088178 -67.266256 
L 641.591917 -67.463588 
L 643.199581 -67.66092 
L 644.883911 -67.858251 
L 646.620332 -68.055583 
L 648.386888 -68.252914 
L 650.163919 -68.450246 
L 651.93359 -68.647578 
L 653.679378 -68.844909 
L 655.385649 -69.042241 
L 657.037379 -69.239572 
L 658.620114 -69.436904 
L 660.12016 -69.634235 
L 661.524999 -69.831567 
L 662.823853 -70.028899 
L 664.008344 -70.22623 
L 665.073117 -70.423562 
L 666.01636 -70.620893 
L 666.840109 -70.818225 
L 667.550307 -71.015556 
L 668.156563 -71.212888 
L 668.671637 -71.41022 
L 669.110673 -71.607551 
L 669.490265 -71.804883 
L 669.827418 -72.002214 
L 670.138507 -72.199546 
L 670.438323 -72.396878 
L 670.739271 -72.594209 
L 671.050792 -72.791541 
L 671.379022 -72.988872 
L 671.726729 -73.186204 
L 672.09348 -73.383535 
L 672.476043 -73.580867 
L 672.868951 -73.778199 
L 673.26519 -73.97553 
L 673.656945 -74.172862 
L 674.036349 -74.370193 
L 674.396174 -74.567525 
L 674.730436 -74.764856 
L 675.034843 -74.962188 
L 675.307099 -75.15952 
L 675.54702 -75.356851 
L 675.75648 -75.554183 
L 675.939187 -75.751514 
L 676.100331 -75.948846 
L 676.246117 -76.146178 
L 676.383244 -76.343509 
L 676.518366 -76.540841 
L 676.657582 -76.738172 
L 676.806 -76.935504 
L 676.967404 -77.132835 
L 677.144044 -77.330167 
L 677.33657 -77.527499 
L 677.544093 -77.72483 
L 677.764362 -77.922162 
L 677.99404 -78.119493 
L 678.229028 -78.316825 
L 678.464827 -78.514156 
L 678.696888 -78.711488 
L 678.920922 -78.90882 
L 679.133158 -79.106151 
L 679.330531 -79.303483 
L 679.510783 -79.500814 
L 679.672505 -79.698146 
L 679.8151 -79.895477 
L 679.938703 -80.092809 
L 680.044063 -80.290141 
L 680.871652 -80.290141 
L 680.871652 -80.290141 
L 680.977011 -80.092809 
L 681.100614 -79.895477 
L 681.243209 -79.698146 
L 681.404931 -79.500814 
L 681.585183 -79.303483 
L 681.782556 -79.106151 
L 681.994793 -78.90882 
L 682.218826 -78.711488 
L 682.450887 -78.514156 
L 682.686686 -78.316825 
L 682.921674 -78.119493 
L 683.151352 -77.922162 
L 683.371622 -77.72483 
L 683.579144 -77.527499 
L 683.771671 -77.330167 
L 683.94831 -77.132835 
L 684.109714 -76.935504 
L 684.258132 -76.738172 
L 684.397348 -76.540841 
L 684.53247 -76.343509 
L 684.669597 -76.146178 
L 684.815383 -75.948846 
L 684.976527 -75.751514 
L 685.159235 -75.554183 
L 685.368694 -75.356851 
L 685.608615 -75.15952 
L 685.880871 -74.962188 
L 686.185278 -74.764856 
L 686.51954 -74.567525 
L 686.879366 -74.370193 
L 687.258769 -74.172862 
L 687.650524 -73.97553 
L 688.046763 -73.778199 
L 688.439672 -73.580867 
L 688.822234 -73.383535 
L 689.188985 -73.186204 
L 689.536692 -72.988872 
L 689.864923 -72.791541 
L 690.176443 -72.594209 
L 690.477392 -72.396878 
L 690.777207 -72.199546 
L 691.088296 -72.002214 
L 691.425449 -71.804883 
L 691.805041 -71.607551 
L 692.244078 -71.41022 
L 692.759151 -71.212888 
L 693.365408 -71.015556 
L 694.075606 -70.818225 
L 694.899355 -70.620893 
L 695.842597 -70.423562 
L 696.907371 -70.22623 
L 698.091861 -70.028899 
L 699.390716 -69.831567 
L 700.795554 -69.634235 
L 702.295601 -69.436904 
L 703.878336 -69.239572 
L 705.530065 -69.042241 
L 707.236336 -68.844909 
L 708.982125 -68.647578 
L 710.751795 -68.450246 
L 712.528826 -68.252914 
L 714.295383 -68.055583 
L 716.031804 -67.858251 
L 717.716133 -67.66092 
L 719.323797 -67.463588 
L 720.827536 -67.266256 
L 722.197673 -67.068925 
L 723.402758 -66.871593 
L 724.41058 -66.674262 
L 725.189501 -66.47693 
L 725.710019 -66.279599 
L 725.946429 -66.082267 
L 725.878446 -65.884935 
L 725.492645 -65.687604 
L 724.783587 -65.490272 
L 723.754531 -65.292941 
L 722.417673 -65.095609 
L 720.793885 -64.898278 
L 718.911982 -64.700946 
L 716.807577 -64.503614 
L 714.521612 -64.306283 
L 712.098666 -64.108951 
L 709.585164 -63.91162 
L 707.027595 -63.714288 
L 704.470837 -63.516956 
L 701.956667 -63.319625 
L 699.522533 -63.122293 
L 697.20061 -62.924962 
L 695.017173 -62.72763 
L 692.992277 -62.530299 
L 691.139735 -62.332967 
L 689.467357 -62.135635 
L 687.977409 -61.938304 
L 686.667257 -61.740972 
L 685.530118 -61.543641 
L 684.5559 -61.346309 
L 683.732046 -61.148978 
L 683.044369 -60.951646 
L 682.477812 -60.754314 
z
" style="stroke: #595959; stroke-width: 1.25"/>
    </defs>
    <g clip-path="url(#p609f84e8c0)">
     <use xlink:href="#me96dfbdede" x="0" y="432" style="fill: #e5c849; stroke: #595959; stroke-width: 1.25"/>
    </g>
   </g>
   <g id="FillBetweenPolyCollection_7">
    <defs>
     <path id="mca6e700aaa" d="M 795.971059 -42.110868 
L 792.387513 -42.110868 
L 791.605063 -43.779347 
L 790.568967 -45.447827 
L 789.235034 -47.116306 
L 787.56554 -48.784786 
L 785.534757 -50.453266 
L 783.134468 -52.121745 
L 780.378637 -53.790225 
L 777.306363 -55.458705 
L 773.982365 -57.127184 
L 770.494585 -58.795664 
L 766.948949 -60.464144 
L 763.46181 -62.132623 
L 760.151017 -63.801103 
L 757.12684 -65.469583 
L 754.483963 -67.138062 
L 752.29556 -68.806542 
L 750.610057 -70.475021 
L 749.450672 -72.143501 
L 748.817397 -73.811981 
L 748.690714 -75.48046 
L 749.036219 -77.14894 
L 749.809346 -78.81742 
L 750.959579 -80.485899 
L 752.433764 -82.154379 
L 754.178396 -83.822859 
L 756.140971 -85.491338 
L 758.27059 -87.159818 
L 760.5181 -88.828298 
L 762.836047 -90.496777 
L 765.178667 -92.165257 
L 767.502128 -93.833736 
L 769.765094 -95.502216 
L 771.929641 -97.170696 
L 773.962445 -98.839175 
L 775.836054 -100.507655 
L 777.530064 -102.176135 
L 779.031959 -103.844614 
L 780.337471 -105.513094 
L 781.450365 -107.181574 
L 782.381691 -108.850053 
L 783.148598 -110.518533 
L 783.772885 -112.187013 
L 784.279444 -113.855492 
L 784.694745 -115.523972 
L 785.045415 -117.192451 
L 785.356963 -118.860931 
L 785.652619 -120.529411 
L 785.952294 -122.19789 
L 786.271689 -123.86637 
L 786.621594 -125.53485 
L 787.007473 -127.203329 
L 787.42943 -128.871809 
L 787.882596 -130.540289 
L 788.357956 -132.208768 
L 788.843551 -133.877248 
L 789.325929 -135.545728 
L 789.791687 -137.214207 
L 790.228917 -138.882687 
L 790.628401 -140.551166 
L 790.984422 -142.219646 
L 791.295106 -143.888126 
L 791.562289 -145.556605 
L 791.790939 -147.225085 
L 791.988225 -148.893565 
L 792.162375 -150.562044 
L 792.321474 -152.230524 
L 792.472379 -153.899004 
L 792.619881 -155.567483 
L 792.766214 -157.235963 
L 792.910968 -158.904443 
L 793.051363 -160.572922 
L 793.18283 -162.241402 
L 793.299777 -163.909881 
L 793.396446 -165.578361 
L 793.467724 -167.246841 
L 793.509855 -168.91532 
L 793.520983 -170.5838 
L 793.501493 -172.25228 
L 793.454149 -173.920759 
L 793.384006 -175.589239 
L 793.298102 -177.257719 
L 793.204937 -178.926198 
L 793.113772 -180.594678 
L 793.033797 -182.263158 
L 792.973258 -183.931637 
L 792.938649 -185.600117 
L 792.934072 -187.268596 
L 792.96088 -188.937076 
L 793.017637 -190.605556 
L 793.100422 -192.274035 
L 793.203414 -193.942515 
L 793.319659 -195.610995 
L 793.441904 -197.279474 
L 793.563364 -198.947954 
L 793.678329 -200.616434 
L 793.78254 -202.284913 
L 793.873331 -203.953393 
L 793.949547 -205.621873 
L 794.011312 -207.290352 
L 794.34726 -207.290352 
L 794.34726 -207.290352 
L 794.409025 -205.621873 
L 794.485241 -203.953393 
L 794.576031 -202.284913 
L 794.680243 -200.616434 
L 794.795208 -198.947954 
L 794.916667 -197.279474 
L 795.038912 -195.610995 
L 795.155157 -193.942515 
L 795.258149 -192.274035 
L 795.340935 -190.605556 
L 795.397692 -188.937076 
L 795.424499 -187.268596 
L 795.419923 -185.600117 
L 795.385313 -183.931637 
L 795.324775 -182.263158 
L 795.2448 -180.594678 
L 795.153634 -178.926198 
L 795.060469 -177.257719 
L 794.974565 -175.589239 
L 794.904423 -173.920759 
L 794.857079 -172.25228 
L 794.837589 -170.5838 
L 794.848716 -168.91532 
L 794.890848 -167.246841 
L 794.962126 -165.578361 
L 795.058794 -163.909881 
L 795.175742 -162.241402 
L 795.307208 -160.572922 
L 795.447603 -158.904443 
L 795.592357 -157.235963 
L 795.738691 -155.567483 
L 795.886192 -153.899004 
L 796.037097 -152.230524 
L 796.196197 -150.562044 
L 796.370346 -148.893565 
L 796.567632 -147.225085 
L 796.796282 -145.556605 
L 797.063466 -143.888126 
L 797.37415 -142.219646 
L 797.73017 -140.551166 
L 798.129655 -138.882687 
L 798.566884 -137.214207 
L 799.032642 -135.545728 
L 799.51502 -133.877248 
L 800.000615 -132.208768 
L 800.475975 -130.540289 
L 800.929141 -128.871809 
L 801.351098 -127.203329 
L 801.736978 -125.53485 
L 802.086882 -123.86637 
L 802.406277 -122.19789 
L 802.705953 -120.529411 
L 803.001608 -118.860931 
L 803.313156 -117.192451 
L 803.663827 -115.523972 
L 804.079127 -113.855492 
L 804.585687 -112.187013 
L 805.209973 -110.518533 
L 805.976881 -108.850053 
L 806.908206 -107.181574 
L 808.021101 -105.513094 
L 809.326612 -103.844614 
L 810.828508 -102.176135 
L 812.522518 -100.507655 
L 814.396127 -98.839175 
L 816.42893 -97.170696 
L 818.593478 -95.502216 
L 820.856443 -93.833736 
L 823.179904 -92.165257 
L 825.522525 -90.496777 
L 827.840471 -88.828298 
L 830.087982 -87.159818 
L 832.217601 -85.491338 
L 834.180176 -83.822859 
L 835.924808 -82.154379 
L 837.398992 -80.485899 
L 838.549226 -78.81742 
L 839.322353 -77.14894 
L 839.667857 -75.48046 
L 839.541175 -73.811981 
L 838.9079 -72.143501 
L 837.748515 -70.475021 
L 836.063011 -68.806542 
L 833.874608 -67.138062 
L 831.231731 -65.469583 
L 828.207555 -63.801103 
L 824.896762 -62.132623 
L 821.409622 -60.464144 
L 817.863987 -58.795664 
L 814.376206 -57.127184 
L 811.052208 -55.458705 
L 807.979935 -53.790225 
L 805.224104 -52.121745 
L 802.823814 -50.453266 
L 800.793031 -48.784786 
L 799.123538 -47.116306 
L 797.789604 -45.447827 
L 796.753508 -43.779347 
L 795.971059 -42.110868 
z
" style="stroke: #595959; stroke-width: 1.25"/>
    </defs>
    <g clip-path="url(#p609f84e8c0)">
     <use xlink:href="#mca6e700aaa" x="0" y="432" style="fill: #dbc29e; stroke: #595959; stroke-width: 1.25"/>
    </g>
   </g>
   <g id="line2d_10">
    <path d="M 111.850714 369.445182 
L 111.850714 299.331981 
" clip-path="url(#p609f84e8c0)" style="fill: none; stroke: #595959; stroke-width: 1.875; stroke-linecap: round"/>
   </g>
   <g id="line2d_11">
    <path d="M 111.850714 363.071254 
L 111.850714 337.575545 
" clip-path="url(#p609f84e8c0)" style="fill: none; stroke: #595959; stroke-width: 5.625; stroke-linecap: round"/>
   </g>
   <g id="line2d_12">
    <path d="M 111.850714 353.510363 
" clip-path="url(#p609f84e8c0)" style="fill: none; stroke: #595959; stroke-width: 1.5; stroke-linecap: round"/>
    <defs>
     <path id="ma06231f14b" d="M 2.34375 0 
L -2.34375 -0 
" style="stroke: #ffffff; stroke-width: 1.125"/>
    </defs>
    <g clip-path="url(#p609f84e8c0)">
     <use xlink:href="#ma06231f14b" x="111.850714" y="353.510363" style="fill: #ffffff; stroke: #ffffff; stroke-width: 1.125"/>
    </g>
   </g>
   <g id="line2d_13">
    <path d="M 225.572143 369.445182 
L 225.572143 318.453763 
" clip-path="url(#p609f84e8c0)" style="fill: none; stroke: #595959; stroke-width: 1.875; stroke-linecap: round"/>
   </g>
   <g id="line2d_14">
    <path d="M 225.572143 361.477772 
L 225.572143 343.949472 
" clip-path="url(#p609f84e8c0)" style="fill: none; stroke: #595959; stroke-width: 5.625; stroke-linecap: round"/>
   </g>
   <g id="line2d_15">
    <path d="M 225.572143 353.510363 
" clip-path="url(#p609f84e8c0)" style="fill: none; stroke: #595959; stroke-width: 1.5; stroke-linecap: round"/>
    <g clip-path="url(#p609f84e8c0)">
     <use xlink:href="#ma06231f14b" x="225.572143" y="353.510363" style="fill: #ffffff; stroke: #ffffff; stroke-width: 1.125"/>
    </g>
   </g>
   <g id="line2d_16">
    <path d="M 339.293571 369.445182 
L 339.293571 348.729918 
" clip-path="url(#p609f84e8c0)" style="fill: none; stroke: #595959; stroke-width: 1.875; stroke-linecap: round"/>
   </g>
   <g id="line2d_17">
    <path d="M 339.293571 364.664736 
L 339.293571 358.290809 
" clip-path="url(#p609f84e8c0)" style="fill: none; stroke: #595959; stroke-width: 5.625; stroke-linecap: round"/>
   </g>
   <g id="line2d_18">
    <path d="M 339.293571 361.477772 
" clip-path="url(#p609f84e8c0)" style="fill: none; stroke: #595959; stroke-width: 1.5; stroke-linecap: round"/>
    <g clip-path="url(#p609f84e8c0)">
     <use xlink:href="#ma06231f14b" x="339.293571" y="361.477772" style="fill: #ffffff; stroke: #ffffff; stroke-width: 1.125"/>
    </g>
   </g>
   <g id="line2d_19">
    <path d="M 453.015 369.445182 
L 453.015 310.486354 
" clip-path="url(#p609f84e8c0)" style="fill: none; stroke: #595959; stroke-width: 1.875; stroke-linecap: round"/>
   </g>
   <g id="line2d_20">
    <path d="M 453.015 364.664736 
L 453.015 342.35599 
" clip-path="url(#p609f84e8c0)" style="fill: none; stroke: #595959; stroke-width: 5.625; stroke-linecap: round"/>
   </g>
   <g id="line2d_21">
    <path d="M 453.015 356.697327 
" clip-path="url(#p609f84e8c0)" style="fill: none; stroke: #595959; stroke-width: 1.5; stroke-linecap: round"/>
    <g clip-path="url(#p609f84e8c0)">
     <use xlink:href="#ma06231f14b" x="453.015" y="356.697327" style="fill: #ffffff; stroke: #ffffff; stroke-width: 1.125"/>
    </g>
   </g>
   <g id="line2d_22">
    <path d="M 566.736429 369.445182 
L 566.736429 324.82769 
" clip-path="url(#p609f84e8c0)" style="fill: none; stroke: #595959; stroke-width: 1.875; stroke-linecap: round"/>
   </g>
   <g id="line2d_23">
    <path d="M 566.736429 366.258218 
L 566.736429 346.738066 
" clip-path="url(#p609f84e8c0)" style="fill: none; stroke: #595959; stroke-width: 5.625; stroke-linecap: round"/>
   </g>
   <g id="line2d_24">
    <path d="M 566.736429 359.884291 
" clip-path="url(#p609f84e8c0)" style="fill: none; stroke: #595959; stroke-width: 1.5; stroke-linecap: round"/>
    <g clip-path="url(#p609f84e8c0)">
     <use xlink:href="#ma06231f14b" x="566.736429" y="359.884291" style="fill: #ffffff; stroke: #ffffff; stroke-width: 1.125"/>
    </g>
   </g>
   <g id="line2d_25">
    <path d="M 680.457857 367.8517 
L 680.457857 358.290809 
" clip-path="url(#p609f84e8c0)" style="fill: none; stroke: #595959; stroke-width: 1.875; stroke-linecap: round"/>
   </g>
   <g id="line2d_26">
    <path d="M 680.457857 366.258218 
L 680.457857 363.071254 
" clip-path="url(#p609f84e8c0)" style="fill: none; stroke: #595959; stroke-width: 5.625; stroke-linecap: round"/>
   </g>
   <g id="line2d_27">
    <path d="M 680.457857 366.258218 
" clip-path="url(#p609f84e8c0)" style="fill: none; stroke: #595959; stroke-width: 1.5; stroke-linecap: round"/>
    <g clip-path="url(#p609f84e8c0)">
     <use xlink:href="#ma06231f14b" x="680.457857" y="366.258218" style="fill: #ffffff; stroke: #ffffff; stroke-width: 1.125"/>
    </g>
   </g>
   <g id="line2d_28">
    <path d="M 794.179286 369.445182 
L 794.179286 304.112426 
" clip-path="url(#p609f84e8c0)" style="fill: none; stroke: #595959; stroke-width: 1.875; stroke-linecap: round"/>
   </g>
   <g id="line2d_29">
    <path d="M 794.179286 362.672884 
L 794.179286 339.169027 
" clip-path="url(#p609f84e8c0)" style="fill: none; stroke: #595959; stroke-width: 5.625; stroke-linecap: round"/>
   </g>
   <g id="line2d_30">
    <path d="M 794.179286 351.916881 
" clip-path="url(#p609f84e8c0)" style="fill: none; stroke: #595959; stroke-width: 1.5; stroke-linecap: round"/>
    <g clip-path="url(#p609f84e8c0)">
     <use xlink:href="#ma06231f14b" x="794.179286" y="351.916881" style="fill: #ffffff; stroke: #ffffff; stroke-width: 1.125"/>
    </g>
   </g>
   <g id="patch_3">
    <path d="M 54.99 385.38 
L 54.99 27.65625 
" style="fill: none; stroke: #cccccc; stroke-width: 1.25; stroke-linejoin: miter; stroke-linecap: square"/>
   </g>
   <g id="patch_4">
    <path d="M 851.04 385.38 
L 851.04 27.65625 
" style="fill: none; stroke: #cccccc; stroke-width: 1.25; stroke-linejoin: miter; stroke-linecap: square"/>
   </g>
   <g id="patch_5">
    <path d="M 54.99 385.38 
L 851.04 385.38 
" style="fill: none; stroke: #cccccc; stroke-width: 1.25; stroke-linejoin: miter; stroke-linecap: square"/>
   </g>
   <g id="patch_6">
    <path d="M 54.99 27.65625 
L 851.04 27.65625 
" style="fill: none; stroke: #cccccc; stroke-width: 1.25; stroke-linejoin: miter; stroke-linecap: square"/>
   </g>
   <g id="text_19">
    <!-- n=53 -->
    <g style="fill: #262626" transform="translate(100.588996 384.570403) scale(0.1 -0.1)">
     <defs>
      <path id="ArialMT-3d" d="M 3381 2694 
L 356 2694 
L 356 3219 
L 3381 3219 
L 3381 2694 
z
M 3381 1303 
L 356 1303 
L 356 1828 
L 3381 1828 
L 3381 1303 
z
" transform="scale(0.015625)"/>
      <path id="ArialMT-33" d="M 269 1209 
L 831 1284 
Q 928 806 1161 595 
Q 1394 384 1728 384 
Q 2125 384 2398 659 
Q 2672 934 2672 1341 
Q 2672 1728 2419 1979 
Q 2166 2231 1775 2231 
Q 1616 2231 1378 2169 
L 1441 2663 
Q 1497 2656 1531 2656 
Q 1891 2656 2178 2843 
Q 2466 3031 2466 3422 
Q 2466 3731 2256 3934 
Q 2047 4138 1716 4138 
Q 1388 4138 1169 3931 
Q 950 3725 888 3313 
L 325 3413 
Q 428 3978 793 4289 
Q 1159 4600 1703 4600 
Q 2078 4600 2393 4439 
Q 2709 4278 2876 4000 
Q 3044 3722 3044 3409 
Q 3044 3113 2884 2869 
Q 2725 2625 2413 2481 
Q 2819 2388 3044 2092 
Q 3269 1797 3269 1353 
Q 3269 753 2831 336 
Q 2394 -81 1725 -81 
Q 1122 -81 723 278 
Q 325 638 269 1209 
z
" transform="scale(0.015625)"/>
     </defs>
     <use xlink:href="#ArialMT-6e"/>
     <use xlink:href="#ArialMT-3d" transform="translate(55.615234 0)"/>
     <use xlink:href="#ArialMT-35" transform="translate(114.013672 0)"/>
     <use xlink:href="#ArialMT-33" transform="translate(169.628906 0)"/>
    </g>
   </g>
   <g id="text_20">
    <!-- n=221 -->
    <g style="fill: #262626" transform="translate(211.529955 384.570403) scale(0.1 -0.1)">
     <use xlink:href="#ArialMT-6e"/>
     <use xlink:href="#ArialMT-3d" transform="translate(55.615234 0)"/>
     <use xlink:href="#ArialMT-32" transform="translate(114.013672 0)"/>
     <use xlink:href="#ArialMT-32" transform="translate(169.628906 0)"/>
     <use xlink:href="#ArialMT-31" transform="translate(225.244141 0)"/>
    </g>
   </g>
   <g id="text_21">
    <!-- n=86 -->
    <g style="fill: #262626" transform="translate(328.031853 384.570403) scale(0.1 -0.1)">
     <defs>
      <path id="ArialMT-38" d="M 1131 2484 
Q 781 2613 612 2850 
Q 444 3088 444 3419 
Q 444 3919 803 4259 
Q 1163 4600 1759 4600 
Q 2359 4600 2725 4251 
Q 3091 3903 3091 3403 
Q 3091 3084 2923 2848 
Q 2756 2613 2416 2484 
Q 2838 2347 3058 2040 
Q 3278 1734 3278 1309 
Q 3278 722 2862 322 
Q 2447 -78 1769 -78 
Q 1091 -78 675 323 
Q 259 725 259 1325 
Q 259 1772 486 2073 
Q 713 2375 1131 2484 
z
M 1019 3438 
Q 1019 3113 1228 2906 
Q 1438 2700 1772 2700 
Q 2097 2700 2305 2904 
Q 2513 3109 2513 3406 
Q 2513 3716 2298 3927 
Q 2084 4138 1766 4138 
Q 1444 4138 1231 3931 
Q 1019 3725 1019 3438 
z
M 838 1322 
Q 838 1081 952 856 
Q 1066 631 1291 507 
Q 1516 384 1775 384 
Q 2178 384 2440 643 
Q 2703 903 2703 1303 
Q 2703 1709 2433 1975 
Q 2163 2241 1756 2241 
Q 1359 2241 1098 1978 
Q 838 1716 838 1322 
z
" transform="scale(0.015625)"/>
      <path id="ArialMT-36" d="M 3184 3459 
L 2625 3416 
Q 2550 3747 2413 3897 
Q 2184 4138 1850 4138 
Q 1581 4138 1378 3988 
Q 1113 3794 959 3422 
Q 806 3050 800 2363 
Q 1003 2672 1297 2822 
Q 1591 2972 1913 2972 
Q 2475 2972 2870 2558 
Q 3266 2144 3266 1488 
Q 3266 1056 3080 686 
Q 2894 316 2569 119 
Q 2244 -78 1831 -78 
Q 1128 -78 684 439 
Q 241 956 241 2144 
Q 241 3472 731 4075 
Q 1159 4600 1884 4600 
Q 2425 4600 2770 4297 
Q 3116 3994 3184 3459 
z
M 888 1484 
Q 888 1194 1011 928 
Q 1134 663 1356 523 
Q 1578 384 1822 384 
Q 2178 384 2434 671 
Q 2691 959 2691 1453 
Q 2691 1928 2437 2201 
Q 2184 2475 1800 2475 
Q 1419 2475 1153 2201 
Q 888 1928 888 1484 
z
" transform="scale(0.015625)"/>
     </defs>
     <use xlink:href="#ArialMT-6e"/>
     <use xlink:href="#ArialMT-3d" transform="translate(55.615234 0)"/>
     <use xlink:href="#ArialMT-38" transform="translate(114.013672 0)"/>
     <use xlink:href="#ArialMT-36" transform="translate(169.628906 0)"/>
    </g>
   </g>
   <g id="text_22">
    <!-- n=66 -->
    <g style="fill: #262626" transform="translate(441.753281 384.570403) scale(0.1 -0.1)">
     <use xlink:href="#ArialMT-6e"/>
     <use xlink:href="#ArialMT-3d" transform="translate(55.615234 0)"/>
     <use xlink:href="#ArialMT-36" transform="translate(114.013672 0)"/>
     <use xlink:href="#ArialMT-36" transform="translate(169.628906 0)"/>
    </g>
   </g>
   <g id="text_23">
    <!-- n=1477 -->
    <g style="fill: #262626" transform="translate(549.913772 384.570403) scale(0.1 -0.1)">
     <defs>
      <path id="ArialMT-34" d="M 2069 0 
L 2069 1097 
L 81 1097 
L 81 1613 
L 2172 4581 
L 2631 4581 
L 2631 1613 
L 3250 1613 
L 3250 1097 
L 2631 1097 
L 2631 0 
L 2069 0 
z
M 2069 1613 
L 2069 3678 
L 634 1613 
L 2069 1613 
z
" transform="scale(0.015625)"/>
     </defs>
     <use xlink:href="#ArialMT-6e"/>
     <use xlink:href="#ArialMT-3d" transform="translate(55.615234 0)"/>
     <use xlink:href="#ArialMT-31" transform="translate(114.013672 0)"/>
     <use xlink:href="#ArialMT-34" transform="translate(169.628906 0)"/>
     <use xlink:href="#ArialMT-37" transform="translate(225.244141 0)"/>
     <use xlink:href="#ArialMT-37" transform="translate(280.859375 0)"/>
    </g>
   </g>
   <g id="text_24">
    <!-- n=1069 -->
    <g style="fill: #262626" transform="translate(663.635201 384.570403) scale(0.1 -0.1)">
     <defs>
      <path id="ArialMT-39" d="M 350 1059 
L 891 1109 
Q 959 728 1153 556 
Q 1347 384 1650 384 
Q 1909 384 2104 503 
Q 2300 622 2425 820 
Q 2550 1019 2634 1356 
Q 2719 1694 2719 2044 
Q 2719 2081 2716 2156 
Q 2547 1888 2255 1720 
Q 1963 1553 1622 1553 
Q 1053 1553 659 1965 
Q 266 2378 266 3053 
Q 266 3750 677 4175 
Q 1088 4600 1706 4600 
Q 2153 4600 2523 4359 
Q 2894 4119 3086 3673 
Q 3278 3228 3278 2384 
Q 3278 1506 3087 986 
Q 2897 466 2520 194 
Q 2144 -78 1638 -78 
Q 1100 -78 759 220 
Q 419 519 350 1059 
z
M 2653 3081 
Q 2653 3566 2395 3850 
Q 2138 4134 1775 4134 
Q 1400 4134 1122 3828 
Q 844 3522 844 3034 
Q 844 2597 1108 2323 
Q 1372 2050 1759 2050 
Q 2150 2050 2401 2323 
Q 2653 2597 2653 3081 
z
" transform="scale(0.015625)"/>
     </defs>
     <use xlink:href="#ArialMT-6e"/>
     <use xlink:href="#ArialMT-3d" transform="translate(55.615234 0)"/>
     <use xlink:href="#ArialMT-31" transform="translate(114.013672 0)"/>
     <use xlink:href="#ArialMT-30" transform="translate(169.628906 0)"/>
     <use xlink:href="#ArialMT-36" transform="translate(225.244141 0)"/>
     <use xlink:href="#ArialMT-39" transform="translate(280.859375 0)"/>
    </g>
   </g>
   <g id="text_25">
    <!-- n=25 -->
    <g style="fill: #262626" transform="translate(782.917567 384.570403) scale(0.1 -0.1)">
     <use xlink:href="#ArialMT-6e"/>
     <use xlink:href="#ArialMT-3d" transform="translate(55.615234 0)"/>
     <use xlink:href="#ArialMT-32" transform="translate(114.013672 0)"/>
     <use xlink:href="#ArialMT-35" transform="translate(169.628906 0)"/>
    </g>
   </g>
   <g id="text_26">
    <!-- Distribuia duratei spitalizrii n funcie de cauza arsurii -->
    <g style="fill: #262626" transform="translate(308.29125 21.65625) scale(0.12 -0.12)">
     <defs>
      <path id="ArialMT-44" d="M 494 0 
L 494 4581 
L 2072 4581 
Q 2606 4581 2888 4516 
Q 3281 4425 3559 4188 
Q 3922 3881 4101 3404 
Q 4281 2928 4281 2316 
Q 4281 1794 4159 1391 
Q 4038 988 3847 723 
Q 3656 459 3429 307 
Q 3203 156 2883 78 
Q 2563 0 2147 0 
L 494 0 
z
M 1100 541 
L 2078 541 
Q 2531 541 2789 625 
Q 3047 709 3200 863 
Q 3416 1078 3536 1442 
Q 3656 1806 3656 2325 
Q 3656 3044 3420 3430 
Q 3184 3816 2847 3947 
Q 2603 4041 2063 4041 
L 1100 4041 
L 1100 541 
z
" transform="scale(0.015625)"/>
      <path id="ArialMT-62" d="M 941 0 
L 419 0 
L 419 4581 
L 981 4581 
L 981 2947 
Q 1338 3394 1891 3394 
Q 2197 3394 2470 3270 
Q 2744 3147 2920 2923 
Q 3097 2700 3197 2384 
Q 3297 2069 3297 1709 
Q 3297 856 2875 390 
Q 2453 -75 1863 -75 
Q 1275 -75 941 416 
L 941 0 
z
M 934 1684 
Q 934 1088 1097 822 
Q 1363 388 1816 388 
Q 2184 388 2453 708 
Q 2722 1028 2722 1663 
Q 2722 2313 2464 2622 
Q 2206 2931 1841 2931 
Q 1472 2931 1203 2611 
Q 934 2291 934 1684 
z
" transform="scale(0.015625)"/>
      <path id="ArialMT-21b" d="M 1650 503 
L 1731 6 
Q 1494 -44 1306 -44 
Q 1000 -44 831 53 
Q 663 150 594 308 
Q 525 466 525 972 
L 525 2881 
L 113 2881 
L 113 3319 
L 525 3319 
L 525 4141 
L 1084 4478 
L 1084 3319 
L 1650 3319 
L 1650 2881 
L 1084 2881 
L 1084 941 
Q 1084 700 1114 631 
Q 1144 563 1211 522 
Q 1278 481 1403 481 
Q 1497 481 1650 503 
z
M 859 -953 
L 859 -378 
L 1438 -378 
L 1438 -953 
Q 1438 -1172 1323 -1364 
Q 1209 -1556 966 -1663 
L 828 -1447 
Q 1125 -1316 1147 -953 
L 859 -953 
z
" transform="scale(0.015625)"/>
      <path id="ArialMT-103" d="M 2588 409 
Q 2275 144 1986 34 
Q 1697 -75 1366 -75 
Q 819 -75 525 192 
Q 231 459 231 875 
Q 231 1119 342 1320 
Q 453 1522 633 1644 
Q 813 1766 1038 1828 
Q 1203 1872 1538 1913 
Q 2219 1994 2541 2106 
Q 2544 2222 2544 2253 
Q 2544 2597 2384 2738 
Q 2169 2928 1744 2928 
Q 1347 2928 1158 2789 
Q 969 2650 878 2297 
L 328 2372 
Q 403 2725 575 2942 
Q 747 3159 1072 3276 
Q 1397 3394 1825 3394 
Q 2250 3394 2515 3294 
Q 2781 3194 2906 3042 
Q 3031 2891 3081 2659 
Q 3109 2516 3109 2141 
L 3109 1391 
Q 3109 606 3145 398 
Q 3181 191 3288 0 
L 2700 0 
Q 2613 175 2588 409 
z
M 2541 1666 
Q 2234 1541 1622 1453 
Q 1275 1403 1131 1340 
Q 988 1278 909 1158 
Q 831 1038 831 891 
Q 831 666 1001 516 
Q 1172 366 1500 366 
Q 1825 366 2078 508 
Q 2331 650 2450 897 
Q 2541 1088 2541 1459 
L 2541 1666 
z
M 2374 4575 
L 2759 4575 
Q 2712 4184 2473 3975 
Q 2234 3766 1837 3766 
Q 1437 3766 1198 3973 
Q 959 4181 912 4575 
L 1296 4575 
Q 1340 4363 1469 4258 
Q 1599 4153 1818 4153 
Q 2071 4153 2201 4254 
Q 2331 4356 2374 4575 
z
" transform="scale(0.015625)"/>
      <path id="ArialMT-ee" d="M 619 0 
L 619 3319 
L 1181 3319 
L 1181 0 
L 619 0 
z
M 947 4263 
L 594 3731 
L -50 3731 
L 625 4606 
L 1225 4606 
L 1928 3731 
L 1291 3731 
L 947 4263 
z
" transform="scale(0.015625)"/>
     </defs>
     <use xlink:href="#ArialMT-44"/>
     <use xlink:href="#ArialMT-69" transform="translate(72.216797 0)"/>
     <use xlink:href="#ArialMT-73" transform="translate(94.433594 0)"/>
     <use xlink:href="#ArialMT-74" transform="translate(144.433594 0)"/>
     <use xlink:href="#ArialMT-72" transform="translate(172.216797 0)"/>
     <use xlink:href="#ArialMT-69" transform="translate(205.517578 0)"/>
     <use xlink:href="#ArialMT-62" transform="translate(227.734375 0)"/>
     <use xlink:href="#ArialMT-75" transform="translate(283.349609 0)"/>
     <use xlink:href="#ArialMT-21b" transform="translate(338.964844 0)"/>
     <use xlink:href="#ArialMT-69" transform="translate(366.748047 0)"/>
     <use xlink:href="#ArialMT-61" transform="translate(388.964844 0)"/>
     <use xlink:href="#ArialMT-20" transform="translate(444.580078 0)"/>
     <use xlink:href="#ArialMT-64" transform="translate(472.363281 0)"/>
     <use xlink:href="#ArialMT-75" transform="translate(527.978516 0)"/>
     <use xlink:href="#ArialMT-72" transform="translate(583.59375 0)"/>
     <use xlink:href="#ArialMT-61" transform="translate(616.894531 0)"/>
     <use xlink:href="#ArialMT-74" transform="translate(672.509766 0)"/>
     <use xlink:href="#ArialMT-65" transform="translate(700.292969 0)"/>
     <use xlink:href="#ArialMT-69" transform="translate(755.908203 0)"/>
     <use xlink:href="#ArialMT-20" transform="translate(778.125 0)"/>
     <use xlink:href="#ArialMT-73" transform="translate(805.908203 0)"/>
     <use xlink:href="#ArialMT-70" transform="translate(855.908203 0)"/>
     <use xlink:href="#ArialMT-69" transform="translate(911.523438 0)"/>
     <use xlink:href="#ArialMT-74" transform="translate(933.740234 0)"/>
     <use xlink:href="#ArialMT-61" transform="translate(961.523438 0)"/>
     <use xlink:href="#ArialMT-6c" transform="translate(1017.138672 0)"/>
     <use xlink:href="#ArialMT-69" transform="translate(1039.355469 0)"/>
     <use xlink:href="#ArialMT-7a" transform="translate(1061.572266 0)"/>
     <use xlink:href="#ArialMT-103" transform="translate(1111.572266 0)"/>
     <use xlink:href="#ArialMT-72" transform="translate(1167.1875 0)"/>
     <use xlink:href="#ArialMT-69" transform="translate(1200.488281 0)"/>
     <use xlink:href="#ArialMT-69" transform="translate(1222.705078 0)"/>
     <use xlink:href="#ArialMT-20" transform="translate(1244.921875 0)"/>
     <use xlink:href="#ArialMT-ee" transform="translate(1272.705078 0)"/>
     <use xlink:href="#ArialMT-6e" transform="translate(1300.488281 0)"/>
     <use xlink:href="#ArialMT-20" transform="translate(1356.103516 0)"/>
     <use xlink:href="#ArialMT-66" transform="translate(1383.886719 0)"/>
     <use xlink:href="#ArialMT-75" transform="translate(1411.669922 0)"/>
     <use xlink:href="#ArialMT-6e" transform="translate(1467.285156 0)"/>
     <use xlink:href="#ArialMT-63" transform="translate(1522.900391 0)"/>
     <use xlink:href="#ArialMT-21b" transform="translate(1572.900391 0)"/>
     <use xlink:href="#ArialMT-69" transform="translate(1600.683594 0)"/>
     <use xlink:href="#ArialMT-65" transform="translate(1622.900391 0)"/>
     <use xlink:href="#ArialMT-20" transform="translate(1678.515625 0)"/>
     <use xlink:href="#ArialMT-64" transform="translate(1706.298828 0)"/>
     <use xlink:href="#ArialMT-65" transform="translate(1761.914062 0)"/>
     <use xlink:href="#ArialMT-20" transform="translate(1817.529297 0)"/>
     <use xlink:href="#ArialMT-63" transform="translate(1845.3125 0)"/>
     <use xlink:href="#ArialMT-61" transform="translate(1895.3125 0)"/>
     <use xlink:href="#ArialMT-75" transform="translate(1950.927734 0)"/>
     <use xlink:href="#ArialMT-7a" transform="translate(2006.542969 0)"/>
     <use xlink:href="#ArialMT-61" transform="translate(2056.542969 0)"/>
     <use xlink:href="#ArialMT-20" transform="translate(2112.158203 0)"/>
     <use xlink:href="#ArialMT-61" transform="translate(2139.941406 0)"/>
     <use xlink:href="#ArialMT-72" transform="translate(2195.556641 0)"/>
     <use xlink:href="#ArialMT-73" transform="translate(2228.857422 0)"/>
     <use xlink:href="#ArialMT-75" transform="translate(2278.857422 0)"/>
     <use xlink:href="#ArialMT-72" transform="translate(2334.472656 0)"/>
     <use xlink:href="#ArialMT-69" transform="translate(2367.773438 0)"/>
     <use xlink:href="#ArialMT-69" transform="translate(2389.990234 0)"/>
    </g>
   </g>
  </g>
 </g>
 <defs>
  <clipPath id="p609f84e8c0">
   <rect x="54.99" y="27.65625" width="796.05" height="357.72375"/>
  </clipPath>
 </defs>
</svg>
